<svg xmlns="http://www.w3.org/2000/svg" viewBox="0 0 754.85 1048.07"><defs><style>.cls-1{isolation:isolate;}.cls-2{fill:#8a5d33;}.cls-3{fill:#e08d53;}.cls-4{fill:#cc7c3a;}.cls-5{mix-blend-mode:multiply;}.cls-6{fill:#cecece;}.cls-7{fill:#2c5900;}.cls-8{fill:#528421;}.cls-9{fill:#377705;}.cls-10{fill:#459b06;}.cls-11{fill:#f1162a;}.cls-12{fill:#fbde16;}.cls-13{fill:#bf010d;}</style></defs><title>Asset 7</title><g class="cls-1"><g id="Layer_2" data-name="Layer 2"><g id="Mobile_View" data-name="Mobile View"><path class="cls-2" d="M543.87,787.79c0,37-75.8,67-169.31,67s-169.31-30-169.31-67,75.8-67,169.31-67S543.87,750.8,543.87,787.79Z"/><path class="cls-3" d="M512.07,1048.07H238L177.8,764.57H572.25Q542.21,906.32,512.07,1048.07Z"/><path class="cls-4" d="M376.89,764.57H177.8L238,1048.07H376.89Z"/><g class="cls-5"><path class="cls-6" d="M177.8,764.57l46.38,218.5C294.9,874.81,429.57,814.26,561.07,817.22q5.58-26.33,11.18-52.65Z"/></g><rect class="cls-3" x="170.16" y="759.64" width="408.81" height="51.68"/><rect class="cls-4" x="170.16" y="759.64" width="206.11" height="51.68"/><path class="cls-7" d="M491.05,403.9c-28.58-11.61-49.13,43.77-40.2,65.21.36.85.65,1.71.92,2.56.08.23.14.46.21.69.2.71.38,1.41.53,2.11,0,.15.07.31.1.46.16.83.29,1.66.38,2.48,0,.21,0,.42.05.63.06.66.1,1.3.12,1.95,0,.21,0,.42,0,.63,0,.8,0,1.59-.07,2.37,0,.16,0,.31,0,.47-.06.65-.13,1.3-.22,1.94,0,.22,0,.45-.09.67-.12.74-.25,1.48-.41,2.2,0,0,0,.06,0,.09-.16.75-.36,1.48-.57,2.2a6.13,6.13,0,0,1-.18.61c-.18.6-.36,1.19-.56,1.77-.05.13-.1.26-.14.39-.25.69-.51,1.37-.79,2-.06.17-.13.32-.2.48-.23.54-.47,1.07-.71,1.58-.06.15-.13.3-.2.44-.3.63-.61,1.25-.93,1.84,0,.08-.08.15-.11.22-.29.54-.58,1.06-.86,1.56-.08.12-.14.24-.22.36-.65,1.13-1.31,2.17-2,3.12l-.15.22c-.31.46-.62.9-.91,1.31a50.92,50.92,0,0,1-3.7,4.6c-11.92,6.55-28.59-3.57-24.13-33.94s-14.29-53.6-45.55-48.7-41.09,41.55-49.13,62.1,7.15,85.75,32.16,122.37,68.78,56.27,69.68,67,12.65,101.2,48.27,128C458.83,757,526.78,705.82,548.21,609.35S519.63,415.51,491.05,403.9Z"/><path class="cls-8" d="M429.68,892.78C422.38,644.47,362.21,539,313,494.18c-41.18-37.49-78.21-35.6-78.58-35.56l-.93-13.19c1.7-.12,42.38-2.59,87.8,38.41C372.66,530.19,435.44,638.7,442.9,892.39Z"/><path class="cls-8" d="M408.36,867.58c-87.06-431.45,13.9-493.37,18.24-495.8l6.53,11.49c-.23.14-24.23,15.22-37.73,81.66-12.55,61.71-18.24,181.22,25.91,400Z"/><path class="cls-8" d="M375.79,743.49c-92.94-511.89,14.44-585.11,19-588l7.06,11.17c-.26.18-26.21,18.23-40.79,97.75-13.5,73.56-19.65,216,27.69,476.68Z"/><path class="cls-8" d="M347.68,742.3l-13.22-.07c1.38-293-29.51-448.08-55.67-526.59-28.36-85.14-57.33-100.93-57.62-101.08L227,102.67C232,105.07,350.4,168.17,347.68,742.3Z"/><path class="cls-9" d="M369.74,290.78s54.35,55.86,54.35,98.38c49.2,34.45,137.62,88.13,154.73,120.77s58.1,83.32,104.07,85.52,72,20.94,72,20.94-17.43-34.15-30.52-60.59S708.33,498.48,680,488s-44.13-51.72-66.5-81.76-53.8-49.86-96.47-60.88-38.43-41.8-64.79-46.79S369.74,290.78,369.74,290.78Z"/><path class="cls-10" d="M421.83,383.56s39.67-94.64,19.84-140.66c36.35-2,66.19,84,83.21,113.71s54.83,44.05,44.74,76,16.9,80.43,26,101.36c-35-15.42-48.09-51.88-76.09-74.05S417.92,393.63,421.83,383.56Z"/><path class="cls-9" d="M366.1,632.09s24.24-25.34,13.22-51.78,14.32-94.74,49.57-80.41,96.94,134.4,70.5,253.37S418.71,935,434.27,997.82c-43.93-33-88-144.31-89.1-157.53s-55.08-37.45-85.93-82.62-49.57-125.58-39.65-150.92,22-70.55,60.58-76.58,61.69,22.6,56.18,60.06S351.41,640.17,366.1,632.09Z"/><path class="cls-10" d="M428.89,499.9c-35.25-14.33-60.59,54-49.57,80.41,7.86,18.88-2.23,37.19-8.66,46.12,48.92,87.8,20.14,198.43,30.69,295.11,4.41,40.41,30.53,74.49,32.92,76.28C418.71,935,473,872.24,499.39,753.27S464.15,514.22,428.89,499.9Z"/><path class="cls-9" d="M542.09,660.74s5.47-26.55-12.59-39.34-29.53-67.93-.56-73,118.67,48.21,150.21,137,21.79,152.18,57.76,186.91c-42.35-3.6-116.89-58.38-123-66.59s-51.45-1.91-90.2-18.83-84-61.89-87.94-82.56-14.53-55.25,8.24-75,49.68-10.53,61.45,16.26S535.79,672.06,542.09,660.74Z"/><path class="cls-10" d="M528.94,548.38c-29,5.09-17.52,60.23.56,73,12.9,9.13,13.79,25.27,13.26,33.76C610.85,692.58,637.42,776.85,684,835.83c19.48,24.66,50.58,36.25,52.88,36.45-36-34.73-26.23-98.13-57.76-186.91S557.9,543.28,528.94,548.38Z"/><path class="cls-9" d="M236.51,443.32s26.44-29.61,11-86.59,12.12-98.67,51.78-80.57S318,381.72,308.11,411.24s33.05,114.18-6.61,141.81-67.19,48.51-94.73,60.1-57.29,46.83-78.21,59S52.54,774.55,47,818.61C22.8,744.81-13.56,644.26,5.17,575s5.51-82.26,28.64-126.43-1.1-67.06,41.86-91.42,63.9-76.47,93.64-77.4,78.21-9.91,66.1,37S204.56,449.19,236.51,443.32Z"/><path class="cls-10" d="M308.11,411.24c9.92-29.52,30.85-117-8.81-135.08s-67.2,23.6-51.78,80.57-11,86.59-11,86.59c-3.79.7-6.86.1-9.31-1.56-131,75.17-165.37,229.78-182,371.41L47,818.61c5.51-44.06,60.59-134.39,81.53-146.51s50.66-47.37,78.21-59,55.08-32.48,94.73-60.1S298.2,440.76,308.11,411.24Z"/><path class="cls-9" d="M273.63,785.15s13.93-15.61,5.8-45.63,6.38-52,27.29-42.44,9.86,55.61,4.63,71.16,17.41,60.15-3.48,74.71-35.4,25.56-49.91,31.66-30.18,24.67-41.21,31.06-40,54-42.94,77.19C161,944,141.89,891,151.76,854.52s2.9-43.34,15.09-66.61-.59-35.33,22-48.16,33.66-40.29,49.34-40.78,41.2-5.21,34.82,19.49S256.8,788.23,273.63,785.15Z"/><path class="cls-10" d="M311.35,768.24c5.23-15.55,16.26-61.63-4.63-71.16s-35.41,12.43-27.29,42.44-5.8,45.63-5.8,45.63a6.44,6.44,0,0,1-4.91-.83c-69,39.6-87.12,121-95.86,195.66.32,1,.64,1.93.95,2.88,2.9-23.22,31.92-70.81,42.94-77.19s26.7-25,41.21-31.06S287,857.5,307.87,843,306.13,783.79,311.35,768.24Z"/><path class="cls-11" d="M245.26,127.23s73.54,9.7,65.24-52.31S129.74-21.64,109.15,148.31C187.38,118.31,245.26,127.23,245.26,127.23Z"/><path class="cls-12" d="M253,123.53A8.26,8.26,0,0,1,247.9,134h0a8.27,8.27,0,0,1-10.51-5.1L196.52,11A8.25,8.25,0,0,1,201.62.46h0a8.25,8.25,0,0,1,10.51,5.1Z"/><path class="cls-13" d="M291.8,167.69S262.85,76,187.15,91.66,79.88,153.81,95.06,234C106.9,181.32,197.71,95.81,291.8,167.69Z"/><path class="cls-11" d="M375.08,216.62s-73.54,9.69-65.24-52.31,180.75-96.57,201.35,73.38C433,207.69,375.08,216.62,375.08,216.62Z"/><path class="cls-12" d="M367.33,212.92a8.26,8.26,0,0,0,5.11,10.51h0a8.25,8.25,0,0,0,10.5-5.11l40.87-118a8.26,8.26,0,0,0-5.1-10.51h0A8.28,8.28,0,0,0,408.2,95Z"/><path class="cls-13" d="M328.55,257.07s28.94-91.71,104.64-76,107.27,62.15,92.09,142.37C513.44,270.7,422.63,185.19,328.55,257.07Z"/></g></g></g></svg>