<svg xmlns="http://www.w3.org/2000/svg" viewBox="0 0 810.44 894.78"><defs><style>.cls-1{isolation:isolate;}.cls-2{fill:#8a5d33;}.cls-3{fill:#e08d53;}.cls-4{fill:#cc7c3a;}.cls-5{mix-blend-mode:multiply;}.cls-6{fill:#cecece;}.cls-7{fill:#377705;}.cls-8{fill:#459b06;}.cls-9{fill:#5ab502;}.cls-10{fill:#86dd2a;}</style></defs><title>Asset 8</title><g class="cls-1"><g id="Layer_2" data-name="Layer 2"><g id="Mobile_View" data-name="Mobile View"><path class="cls-2" d="M601.62,634.5c0,37-75.8,67-169.31,67S263,671.49,263,634.5s75.8-67,169.31-67S601.62,597.51,601.62,634.5Z"/><path class="cls-3" d="M569.82,894.78H295.73Q265.64,753,235.56,611.29H630Q600,753,569.82,894.78Z"/><path class="cls-4" d="M434.64,611.29H235.56Q265.64,753,295.73,894.78H434.64Z"/><g class="cls-5"><path class="cls-6" d="M235.56,611.29q23.18,109.25,46.37,218.49C352.65,721.52,487.32,661,618.82,663.93q5.58-26.32,11.17-52.64Z"/></g><rect class="cls-3" x="227.91" y="606.36" width="408.81" height="51.68"/><rect class="cls-4" x="227.91" y="606.36" width="206.1" height="51.68"/><path class="cls-7" d="M290.91,359.3c-1.28,4.4-.68,6.63-.68,6.63S290.48,363.45,290.91,359.3Z"/><path class="cls-7" d="M598.74,280.4c39.69-3,68,7.34,78.8,24.85.57-27.25-6.09-66.9-33.59-68.1s-45.49-4.1-77.62,19.21-65.87,8.58-33.93-4.43,107.42-32.08,119.92-21.11c1.32-29-18.7-56.64-52.66-45s-26.9,34.33-47.06,44-65,32.31-56.08,7.52,81-62.93,108.37-60.21c-16.61-24.64-70.65-51.55-101.6-39.67S440.44,166,450.13,189.79,474.78,244,470,247.43l-4.81,3.42-.22.14-.07,0c-.13.08-.3.19-.52.3l-.18.11-.21.09c0-.89.08-1.72.12-2.43.17-2.56.34-3.78.34-3.78l-5.72-.72s-.19,1.54-.31,4.18c-.06,1.15-.1,2.57-.11,4.16-4.31-.12-9.43-3.29-11.58-16.47-4-24.65-30.82-90.41-90.22-57.45s-48.84,77.74-48.84,77.74,23.33-23.4,54-22,51.13,31.41,16.91,26.73S312,254.09,304.45,275.8c-6.15,17.59-11.66,65.82-13.54,83.5,2.19-7.47,9.84-21.2,35.28-40.88,40.4-31.25,86.91-32.67,71.48-15.43s-65.08,29.8-83.41,49.32-11.45,66-13.93,89.47c23.58-37.54,37.53-50.35,62.45-72.55S427,336,397.4,362.79s-85.94,76.27-72.35,120.39c30.14,22,42.23,46.32,42.23,46.32s12.27-64.87,15-85,38.76-66.18,50.08-63.49-23.73,51-39.11,70.7S380.8,543,395.49,561.09c8.93-76.66,35.65-140.12,63.39-141.93s-5.73,46.88-24.14,73.37-23.17,48.87-8.1,89.46c11.62-48.55,12.45-55.46,34-86.86s18.52-51.36,34.45-53.47-.63,39.69-16.09,75.2,5.73,71.41,20.43,73.46C513,592.2,572.68,576.51,581.93,574h0l1-.25.29-.08,31.64-40.64s-15-29.67-36.64-36.18,25.17-27.79,52.13,24c17.88-31.39,13.15-44.79,13.15-44.79s-24.17-28.86-58.31-26.63-40.8-37.41-13-24.66,76.17,50.75,76.17,50.75L663.6,443.1s-31-38.48-67.09-42.77-55.61,1.48-55.69-9.44,32.41-19.05,67.43-1.19,52.14,43.75,52.14,43.75l11.7-57.34s-59.23-30.64-84.23-32.87-19.35-24.2,10.3-19.51,63.07,23.94,72.6,42c9.25-25.67,5.17-55.41-6.54-60.86s-50.57-13-74.53-9.06S559.05,283.42,598.74,280.4ZM431.41,302.12c5.34-2.18,2.18,5.33,5.93,6.92-5.83,8.6-20.26,11.36-21.35,8.69C404.12,303.89,424.49,308.05,431.41,302.12Zm76.13,18.78c-1.09-2.67-2.17-5.34-3.27-8,9-16.11,42.12-26.5,50.82-5.14C541.25,319.61,524.15,323.47,507.54,320.9Zm23.63,180.23c-14.34,18.29-5.14,33.22-2.87,54.08.59,9.09-16.5,12.95-22.44,6-20-20.72-10.36-51.45,7.34-72.24,8.92-11,10.57-9.37,13-7.64C531.07,485.61,536.8,492,531.17,501.13Z"/><path class="cls-7" d="M186.17,486.14a9.89,9.89,0,0,0-.49,4.83S185.86,489.16,186.17,486.14Z"/><path class="cls-7" d="M410.52,428.63c28.92-2.2,49.56,5.35,57.42,18.12.42-19.87-4.43-48.76-24.47-49.63s-33.15-3-56.56,14-48,6.26-24.73-3.23,78.28-23.37,87.39-15.38c1-21.15-13.63-41.28-38.37-32.79s-19.62,25-34.3,32.06-47.35,23.55-40.88,5.48,59-45.86,79-43.88c-12.11-17.95-51.49-37.56-74-28.91s-45.81,20.79-38.74,38.14,18,39.51,14.45,42l-3.51,2.49-.15.1-.05,0-.38.22-.14.08-.15.07c0-.65.06-1.26.09-1.78.12-1.86.24-2.75.24-2.75l-4.16-.52s-.14,1.12-.23,3c0,.84-.07,1.87-.08,3-3.14-.09-6.87-2.39-8.44-12-2.93-18-22.45-65.89-65.75-41.87s-35.59,56.66-35.59,56.66,17-17.06,39.36-16,37.27,22.89,12.33,19.48-48.49-5.39-54,10.43c-4.48,12.82-8.49,48-9.87,60.86,1.6-5.44,7.17-15.45,25.72-29.8,29.44-22.77,63.34-23.8,52.09-11.24S216.56,466.82,203.19,481s-8.34,48.1-10.15,65.21c17.19-27.37,27.35-36.69,45.52-52.87s46.78-24.26,25.22-4.69-62.64,55.58-52.73,87.73c22,16.06,30.79,33.76,30.79,33.76s8.94-47.28,10.95-61.94S281,500,289.29,502s-17.3,37.19-28.5,51.52-9.1,66.5,1.6,79.7c6.51-55.87,26-102.11,46.2-103.44s-4.17,34.17-17.6,53.47-16.89,35.62-5.9,65.2c8.47-35.38,9.08-40.42,24.76-63.3s13.5-37.43,25.11-39-.45,28.92-11.73,54.81,4.18,52,14.89,53.53c9.88,1.37,53.41-10.06,60.15-11.86h0l.7-.18.21-.06,23.06-29.62s-10.94-21.62-26.71-26.37,18.35-20.25,38,17.51c13-22.87,9.58-32.64,9.58-32.64s-17.61-21-42.49-19.41-29.74-27.26-9.45-18,55.51,37,55.51,37l11.11-23.68s-22.6-28-48.89-31.17-40.54,1.08-40.59-6.88,23.61-13.88,49.14-.86,38,31.88,38,31.88L464,498.39s-43.16-22.33-61.38-24-14.1-17.63,7.51-14.21,46,17.44,52.91,30.58c6.75-18.71,3.77-40.39-4.77-44.36s-36.85-9.47-54.32-6.61S381.59,430.84,410.52,428.63ZM288.58,444.46c3.89-1.58,1.58,3.89,4.32,5-4.26,6.27-14.77,8.29-15.56,6.35C268.68,445.76,283.53,448.79,288.58,444.46Zm55.47,13.69-2.37-5.83c6.55-11.75,30.69-19.32,37-3.75A42.39,42.39,0,0,1,344.05,458.15ZM361.27,589.5c-10.45,13.33-3.74,24.21-2.08,39.41.43,6.63-12,9.44-16.36,4.4-14.57-15.1-7.55-37.49,5.35-52.65,6.5-8,7.7-6.82,9.49-5.57C361.2,578.19,365.38,582.87,361.27,589.5Z"/><path class="cls-8" d="M252.08,217a5.14,5.14,0,0,1-1.27-3S251.31,215.11,252.08,217Z"/><path class="cls-9" d="M446.11,150.65c14-8.35,28.22-35.8,29.43-47.13S456,64.12,431.21,51.15c14.69,21.21,17.16,49.21,5.55,71.55-9.79,18.82-24.32,4.44-15.45-10.09s.74-69.4.74-69.4c-22.1-12.85-34-18.27-58.77-27.06,0,0,27.5,23,32.57,53.11s-15,40.94-21.86,34.05,4.68-12.79,10.38-34.46-31.48-59-31.48-59c-14.48-2.71-21.77-3.77-36.36-5.33C336,20.74,353.71,42.76,358.81,67.43c4.29,20.76-25.57-2.61-18.68-19.24s-24-41.38-24-41.38S300.05-1.27,265.27.17c65.61,24.55,35.11,45.36,29.23,32.37S253.21,4.89,253.21,4.89C236.1,7.55,227.77,9.21,211.73,13c0,0-8.73,28.2-5.76,35s32,22.37,61.78,26.35S332,90.6,325.7,97.23,306.83,92,280,90.58s-31.28-4.39-67.79-8.38c28.33,14.55,40.87,20,62.72,21.4s62.17,16.11,51.09,22.15c-21.85,11.92-73.14-15.54-104-25,17,15.32,40.09,33,60.32,37.81,14,3.3,53.47,14,48.66,20.19s-40.32-4.65-50.26-12.46-47.31-24.73-47.31-24.73,10.32,13,5.33,32.24c16,22.8,54.38,24.11,78.92,29.3,24.24,5.13-1.95,12.34-22.05,8.24S264.41,184.66,240.6,178c8.19,8.28,13.2,31.27,27.65,36.84s48.7-.46,60.58,6.88-20.3,18.06-49.56,9.08c-18.43-5.67-24.88-10.58-27.19-13.73,3.31,8.23,8,33.53,10.75,43.31,3.41,12.07,27.55,6.9,52.88-4.14S323,273,299.44,279s-36.68-7.29-36.68-7.29-17.24,31.47,15.23,50c36,20.56,77.15-30.38,85.52-62.95,5.54-21.58,14.07-17.74,14.07-17.74s0,0,3.38,1.39S371.9,275.24,357,299s4,36.32,22.7,39.62c35,6.18,79.67-43.27,95-75-23.1,12-65.81,1.83-75.07-21-6.95-17.18,25.06-15.12,39.36-13.66S449,258,471.78,256c30.6-2.69,37.93-48.31,31.31-73.39-13.19,25.24-54.26,32.16-79.44,33.32-22.24,1-3.46-26.29,21.16-18.37s37.88-2.39,51.64-17.43c19.83-21.69.25-63.45-16-84.43,8.29,24.4-3.52,49.73-23.5,64.31C434.41,176.44,432.14,159,446.11,150.65ZM354,204.48c-2.12,2.47,1,6.89-2.76,7.09-5.3-2-17.56,7.63-12.27-5.92C339.19,203.44,348.82,200.28,354,204.48ZM303.61,64.16c1,1.9,2,3.26-8.38,3.43-19.7.74-43.8-4.11-62.79-17.58-6.34-4.15-3.61-11.33,5.15-9.18,20.12,5.34,32.37,14.24,49.86,13.53C296,54.74,300.88,60.07,303.61,64.16ZM423.26,157c3.62,21.78-19.74,27.33-29.73,18.56-.18-2.55-.41-5.08-.71-7.6C401.12,158.81,411.37,153.68,423.26,157Z"/><path class="cls-8" d="M446.11,150.65c14-8.35,28.22-35.8,29.43-47.13S456,64.12,431.21,51.15c14.69,21.21,17.16,49.21,5.55,71.55-9.79,18.82-24.32,4.44-15.45-10.09s.74-69.4.74-69.4c-22.1-12.85-34-18.27-58.77-27.06,0,0,27.5,23,32.57,53.11s-15,40.94-21.86,34.05,4.68-12.79,10.38-34.46-31.48-59-31.48-59c-14.48-2.71-21.77-3.77-36.36-5.33C336,20.74,353.71,42.76,358.81,67.43c4.29,20.76-25.57-2.61-18.68-19.24s-24-41.38-24-41.38S300.05-1.27,265.27.17c65.61,24.55,35.11,45.36,29.23,32.37S253.21,4.89,253.21,4.89C236.1,7.55,227.77,9.21,211.73,13c0,0-.06.19-.14.52,24.58,3.32,47.78,8.52,66.52,17.74C357,82.55,374.94,150.47,375.33,240.77a5.84,5.84,0,0,1,2.25.29s0,0,3.38,1.39S371.9,275.24,357,299s4,36.32,22.7,39.62c35,6.18,79.67-43.27,95-75-23.1,12-65.81,1.83-75.07-21-6.95-17.18,25.06-15.12,39.36-13.66S449,258,471.78,256c30.6-2.69,37.93-48.31,31.31-73.39-13.19,25.24-54.26,32.16-79.44,33.32-22.24,1-3.46-26.29,21.16-18.37s37.88-2.39,51.64-17.43c19.83-21.69.25-63.45-16-84.43,8.29,24.4-3.52,49.73-23.5,64.31C434.41,176.44,432.14,159,446.11,150.65ZM423.26,157c3.62,21.78-19.74,27.33-29.73,18.56-.18-2.55-.41-5.08-.71-7.6C401.12,158.81,411.37,153.68,423.26,157Z"/><path class="cls-10" d="M216.07,13.85c-2.91-.23-4.48-.33-4.48-.33s1.55.08,4.45.28,7.26.67,12.75,1.6a184.48,184.48,0,0,1,42.75,12.93c34.65,15.14,64.3,41.1,82.08,74.67a152.27,152.27,0,0,1,10.58,25.2c1.36,4.28,2.57,8.53,3.67,12.74.52,2.11,1,4.22,1.45,6.33s1,4.18,1.39,6.26c.78,4.17,1.58,8.26,2.23,12.31s1.24,8,1.67,11.92c.93,7.78,1.63,15.18,2,22.06.93,13.73,1.1,25.28,1.26,33.24.11,3.46.16,6.22.24,8.23l-.57-.23s-2.8-1.23-6.23,1.74c0-1.94.06-4.23.08-7,.13-8.39.36-20.34-.18-34.42-.21-7.05-.7-14.61-1.45-22.54-.33-4-.91-8-1.38-12.11s-1.27-8.26-2-12.48c-.37-2.11-.78-4.23-1.26-6.34s-.83-4.26-1.32-6.4q-1.51-6.41-3.38-12.76a149,149,0,0,0-9.93-25.1C333.73,70.27,305,44.24,271,28.88a180.63,180.63,0,0,0-42.21-13.3C223.34,14.6,219,14.12,216.07,13.85Z"/><path class="cls-10" d="M267,289.37s.21.74.74,2.05a33.57,33.57,0,0,0,2.71,5.45,26,26,0,0,0,6.33,7.09c3,2.3,7.34,4.33,13.93,3.69s14.88-4.14,22.62-9.78c1.91-1.46,3.93-2.85,5.79-4.47s3.66-3.18,5.48-4.82c3.64-3.33,7.24-6.89,10.68-10.58a232,232,0,0,0,19.22-23.71c3-4.1,5.78-8.28,8.67-12.11s6-7.1,8.88-7.47c6.27.09,11.18,5.54,13.59,12.54s2.69,16.07.71,25.32a69.65,69.65,0,0,0-1.24,7.2,59.12,59.12,0,0,0-.54,6.8c-.12,2.17,0,4.14,0,6.19.19,1.89.25,3.84.45,5.66.84,7.21,2.56,13.24,5.5,17.39a15.11,15.11,0,0,0,11.94,6.28c2.54-.28,4.69-.09,7.2-1.09a30.27,30.27,0,0,0,6.73-2.57c2.11-1.12,4-1.91,5.63-3s3.08-2.14,4.23-2.94c2.28-1.6,3.48-2.48,3.48-2.48s-1.2.79-3.45,2.22q-1.69,1.08-4.15,2.61c-1.63.95-3.4,1.62-5.45,2.6a26,26,0,0,1-6.39,2.1c-2.38.84-4.36.46-6.69.57a15.09,15.09,0,0,1-10.78-6.81c-2.65-4.15-4.15-10.13-4.79-17.2-.16-1.78-.19-3.67-.33-5.52.09-2,0-3.9.13-6a75.37,75.37,0,0,1,1.7-13c2.13-9.92,1.87-19.46-.8-27.18a24.82,24.82,0,0,0-5.93-9.75,14.82,14.82,0,0,0-4.44-3.09,13.22,13.22,0,0,0-2.46-.87,11.88,11.88,0,0,0-3.06-.24,12.91,12.91,0,0,0-6.51,3.64,45.67,45.67,0,0,0-5.17,6c-3.08,4.18-5.88,8.43-8.82,12.57a225.39,225.39,0,0,1-18.74,23.57c-3.35,3.67-6.82,7.09-10.32,10.47-1.77,1.66-3.56,3.3-5.34,4.9s-3.57,2.88-5.35,4.29c-7.14,5.44-14.75,9-20.83,9.67a20,20,0,0,1-13.7-2.78,25.52,25.52,0,0,1-6.88-6.41A33.74,33.74,0,0,1,267,289.37Z"/><path class="cls-10" d="M260.76,231a50.93,50.93,0,0,0,4.28,4.43c1.54,1.4,3.21,2.71,4.9,4s3.52,2.51,5.47,3.59a63.57,63.57,0,0,0,6,3.1,49.37,49.37,0,0,0,6.71,2.25l3.53.87,3.76.47c2.46.46,5.21.19,7.85.23s5.5-.68,8.25-1c2.81-.68,5.64-1.56,8.46-2.38,3.39-1.45,5.07-2.19,8.42-3.73s4.89-2.52,8.11-4.26,4.79-2.48,7.95-4.19c2.65-1.3,5.28-2.74,7.9-3.94s5.22-2.45,7.8-3.52a39.47,39.47,0,0,1,7.57-2.35,11.55,11.55,0,0,1,3.43-.16,4.14,4.14,0,0,1,1.3.46c.36.1.65.77.56.44.47.49.7.75,1.17,1.25l8.14-.19c2.72-.11,5.43-.11,8.17-.32,6.58-.5,9.87-.75,16.45-1.29,13.12-1.09,19.68-1.68,32.79-2.94,10.93-1,22-2.19,33.1-5.73a52.57,52.57,0,0,0,16.55-8.64,34,34,0,0,0,7.46-8.29,32.49,32.49,0,0,0,4.58-12.71,30.3,30.3,0,0,1-4.87,12.07,31.25,31.25,0,0,1-7.37,7.52,48.68,48.68,0,0,1-16.26,7.32c-10.94,3-21.8,3.75-32.63,4.43-5.42.31-10.85.65-16.36,1.28-6.53.57-9.8.84-16.33,1.37s-9.78.77-16.31,1.26c-5.42.32-10.79.33-16.22.62l1.18,1.25a3.42,3.42,0,0,0-1.78-2.57,6.1,6.1,0,0,0-2.11-.7,14.17,14.17,0,0,0-4.21.27,43.74,43.74,0,0,0-8.15,2.7c-2.68,1.17-5.35,2.41-8,3.79s-5.31,2.8-8,4.17c-3.19,1.79-4.79,2.66-8,4.37s-4.8,2.68-8,4.4c-3.18,1.54-4.77,2.29-8,3.75-2.68.87-5.38,1.81-8.07,2.56-2.63.42-5.36,1.13-7.94,1.29s-5.22.41-7.62.05l-3.69-.3-3.5-.71c-2.41-.35-4.44-1.3-6.7-1.91a65.67,65.67,0,0,1-6.15-2.7c-2-.95-3.83-2.12-5.69-3.23A66.2,66.2,0,0,1,260.76,231Z"/><path class="cls-10" d="M250,140.63c4.46,2.73,9.16,5.19,13.89,7.67,2.38,1.22,4.76,2.47,7.19,3.66s4.89,2.36,7.3,3.64,4.92,2.39,7.41,3.55,5,2.37,7.56,3.46S298.44,165,301,166s5.13,2.29,7.75,3.32,5.21,2.14,7.84,3.2c3.19,1.16,4.79,1.76,8,3,2.67,1,5.39,1.85,8.07,2.81s5.43,1.77,8.11,2.69,5.39,1.81,8.13,2.68,5.43,1.81,8.17,2.65,5.49,1.68,8.25,2.5a72,72,0,0,0,8.57,1.93l.08,0,.15,0c5.37-.57,10.71-1.44,16.07-2.23s10.7-1.73,16-2.8c6.41-1.32,9.61-2,16-3.35,5.28-1.18,10.6-2.09,15.91-3.21,10.62-2.19,21.31-4.44,31.63-9a46.68,46.68,0,0,0,14.62-9.9,28.18,28.18,0,0,0,5.67-8.58,27.29,27.29,0,0,0,1.89-12.4,25.23,25.23,0,0,1-2.31,11.83,25.84,25.84,0,0,1-5.76,7.86,44.12,44.12,0,0,1-14.58,8.62c-10.22,4-20.85,5.89-31.44,7.72-10.64,1.62-21.27,4.2-31.83,6.27-5.29,1.05-10.61,1.84-15.93,2.76l-15.94,2.34.23,0a69.65,69.65,0,0,1-8.18-1.64c-2.74-.75-5.48-1.42-8.2-2.26s-5.47-1.58-8.18-2.43-5.44-1.62-8.16-2.49-5.47-1.56-8.13-2.5-5.39-1.68-8.06-2.54c-3.18-1.16-4.77-1.71-8-2.75-2.64-1-5.24-2-7.88-2.93s-5.16-2.1-7.78-3.06-5.11-2.16-7.69-3.15-5.06-2.22-7.61-3.23-5-2.22-7.53-3.27-5-2.18-7.41-3.36-4.89-2.25-7.31-3.39C259.47,145.4,254.64,143.16,250,140.63Z"/><path class="cls-10" d="M224.55,86.13c3,.57,6.07,1.05,9.1,1.54s6,.91,9.06,1.43,6,1,9.06,1.48,6,1.12,9.06,1.62c6,1,12,2.36,18,3.55s12,2.81,18,4.23c7.17,1.77,10.75,2.78,17.87,5,3,.92,5.94,1.88,8.83,3s5.8,2.35,8.65,3.67a106.62,106.62,0,0,1,16.59,9.61,89.94,89.94,0,0,1,7.61,6.07,60.82,60.82,0,0,1,6.76,7l.72.9.85-.13a65.7,65.7,0,0,0,13.91-3.73,59.72,59.72,0,0,0,12.63-6.58,50.38,50.38,0,0,0,5.6-4.55,40,40,0,0,0,4.76-5.64,19.88,19.88,0,0,0,2-3.23,33,33,0,0,0,1.71-3.48,72.53,72.53,0,0,0,2.69-7.31,69.72,69.72,0,0,0,1.45-33.52A61.33,61.33,0,0,0,407,57.93a77.1,77.1,0,0,0-4-9.29,87.62,87.62,0,0,0-5.55-9.27c-1.34-1.84-2-2.75-3.44-4.57s-2.3-2.71-3.87-4.48c1.44,1.78,2.16,2.68,3.55,4.49s1.9,2.7,3.11,4.52a79.64,79.64,0,0,1,5,9.08,72.44,72.44,0,0,1,5.54,17.78,66.31,66.31,0,0,1-2.23,32.06,69.39,69.39,0,0,1-2.61,7.1,30.12,30.12,0,0,1-1.61,3.27,18.47,18.47,0,0,1-1.86,3,36.71,36.71,0,0,1-4.49,5.33,48.09,48.09,0,0,1-5.33,4.34,57.68,57.68,0,0,1-12.15,6.32,73.31,73.31,0,0,1-13.32,3.7l1.6.77a63.69,63.69,0,0,0-7.38-7.4,92.68,92.68,0,0,0-8-6.19,111,111,0,0,0-17.2-9.63c-3-1.3-5.92-2.57-8.95-3.62s-6-2-9-2.92c-7.18-2.08-10.8-3-18-4.61-6-1.25-12-2.67-18.05-3.75s-12.05-2.22-18.06-3.07c-3-.4-6-.89-9-1.3s-6-.74-9-1.19-6-.7-9-1.13S227.58,86.58,224.55,86.13Z"/><path class="cls-8" d="M276.82,404.81c-1.22,2.44-2.54,3-2.54,3S275.2,406.68,276.82,404.81Z"/><path class="cls-9" d="M100.87,236.42c-16.43-10.19-53.15-10.23-65.77-5.31s-30.87,42.12-31,75.34c14.35-27.08,42.53-45,72.43-44.91,25.19,0,18,23.22-2.2,21.79S.7,320.44.7,320.44C-.8,350.77,0,366.26,4.24,397.19c0,0,9.21-41.54,38.22-63.35s51.36-6.56,47.86,4.48-16,2-42,7.88S3.25,411.6,3.25,411.6c5,16.74,7.91,25,14.22,41.26,6.52-29.37,20.06-60.11,43.29-78.95,19.55-15.85,11.2,28.4-10.1,30.21S20.12,452,20.12,452s.27,21.4,20.77,57.3c-9.92-82.6,28.67-61.79,18.18-48.5s-6.62,58.63-6.62,58.63C64.6,536,70.89,543.9,83.65,558.75c0,0,34.5-6.19,40.08-13s6.14-45.91-5.94-79.53-18-76.65-7.53-73.6,4.83,22.73,17.93,51.81,12.44,35.39,28.17,76.06c-.14-37.82-1.23-54-11.68-77.82s-16.93-74.37-4.51-66c24.49,16.53,23.53,85.62,30.36,123.29,6.89-26.28,12.95-60.3,6.95-84.25-4.16-16.55-14.46-64-5.27-62.35s17.11,45.07,14.29,59.81-.25,63.41-.25,63.41,8-18,31.09-23.23c15.32-29.31-4.26-70.51-12.18-99.24-7.83-28.36,14.08-4.67,20.73,18.76s10,36.65,16,65.39c4.26-13.14,25.78-31,23.76-49.26s-27.07-51.1-25.82-67.65,30.13,11.55,36.63,47.32c4.09,22.53,2.43,32,.38,36.17,6.86-8,31-26.73,39.8-35,10.87-10.19-7.76-32.83-33.24-53.51s13.68-16.84,32.92,4.71,12.34,42.68,12.34,42.68,42.6,1,44.46-43.4c2.06-49.13-74.16-64.78-113.08-55.81-25.78,5.93-26.38-5.16-26.38-5.16s0,0-.38-4.32,39.52-8.36,72.73-5.67,36.11-24.06,29.39-45.56c-12.58-40.27-89.12-60.41-131-59.25,25.21,17.84,37.86,68.41,18.78,90.66-14.32,16.72-29.62-18.16-35.89-34.06s25.19-26.42,10.68-49.31c-19.54-30.8-71.66-13.63-94.49,7,33.81.13,63.53,39.67,78.5,65.58,13.23,22.9-25.84,18-30.92-12.28s-23.2-38.64-46.58-44.94c-33.69-9.08-67.05,34.36-80.28,63,21.19-22.06,54.36-23.44,80.65-10.32C134.46,234.68,117.3,246.6,100.87,236.42ZM207.94,304.2c3.76.89,6.72-4.83,9-1,.78,6.69,17.62,14.35.45,16.18C214.91,320.35,206.33,311.93,207.94,304.2ZM87.44,433.92c1.45-2.11,2.35-3.89,8.2,7,11.54,20.37,19.57,48.44,15.73,75.81-.92,8.95-10,10-12.49-.41-5.35-24.13-2.64-41.9-12.95-60C81.67,447.08,84.61,439,87.44,433.92ZM120.08,257c21-15.71,39.59,5.9,35.79,21.22q-3.87,2.37-7.62,4.9C134,279.4,123,271.4,120.08,257Z"/><path class="cls-8" d="M100.87,236.42c-16.43-10.19-53.15-10.23-65.77-5.31s-30.87,42.12-31,75.34c14.35-27.08,42.53-45,72.43-44.91,25.19,0,18,23.22-2.2,21.79S.7,320.44.7,320.44C-.8,350.77,0,366.26,4.24,397.19c0,0,9.21-41.54,38.22-63.35s51.36-6.56,47.86,4.48-16,2-42,7.88S3.25,411.6,3.25,411.6c5,16.74,7.91,25,14.22,41.26,6.52-29.37,20.06-60.11,43.29-78.95,19.55-15.85,11.2,28.4-10.1,30.21S20.12,452,20.12,452s.27,21.4,20.77,57.3c-9.92-82.6,28.67-61.79,18.18-48.5s-6.62,58.63-6.62,58.63C64.6,536,70.89,543.9,83.65,558.75l.61-.14c-9.9-27.73-17.08-55.05-17.59-79.84,11-111.22,72.87-167.2,167.88-216.91a6.82,6.82,0,0,1-.91-2.52s0,0-.38-4.32,39.52-8.36,72.73-5.67,36.11-24.06,29.39-45.56c-12.58-40.27-89.12-60.41-131-59.25,25.21,17.84,37.86,68.41,18.78,90.66-14.32,16.72-29.62-18.16-35.89-34.06s25.19-26.42,10.68-49.31c-19.54-30.8-71.66-13.63-94.49,7,33.81.13,63.53,39.67,78.5,65.58,13.23,22.9-25.84,18-30.92-12.28s-23.2-38.64-46.58-44.94c-33.69-9.08-67.05,34.36-80.28,63,21.19-22.06,54.36-23.44,80.65-10.32C134.46,234.68,117.3,246.6,100.87,236.42ZM120.08,257c21-15.71,39.59,5.9,35.79,21.22q-3.87,2.37-7.62,4.9C134,279.4,123,271.4,120.08,257Z"/><path class="cls-10" d="M238.86,265c-5-2-5.22-5.62-5.22-5.62s0,0-.08-.74c-2.07,1.19-4.95,2.75-8.55,4.75-8.3,4.52-20.38,11-34.37,19.48-7,4.19-14.45,9-22.15,14.2-3.88,2.58-7.68,5.44-11.66,8.26s-7.79,6-11.76,9.07q-3,2.37-5.85,4.89t-5.87,5c-3.84,3.45-7.67,7-11.44,10.83A178.82,178.82,0,0,0,101.11,360c-25.7,37.07-36.9,82.51-33.94,127.32a219.13,219.13,0,0,0,9.69,52.15c2,6.29,3.93,11.1,5.27,14.31s2.13,4.85,2.13,4.85-.74-1.7-2.09-4.91-3.18-8.07-5.12-14.37a214.09,214.09,0,0,1-9-51.77c-2.33-44.18,9.42-88.75,35.48-124.75a176.54,176.54,0,0,1,21-24.18q5.67-5.43,11.62-10.53c2-1.68,4-3.31,6-4.89s4-3.24,6-4.78c4.09-3,8.08-6.05,12.11-8.88s8-5.56,12-8.08c8-5.1,15.66-9.75,23-13.83,14.56-8.26,27.3-14.53,36.21-19Z"/><path class="cls-10" d="M344.93,349.55a25.08,25.08,0,0,0,1.76-1.89,39.51,39.51,0,0,0,4.27-5.83,31.2,31.2,0,0,0,4-10.54c.81-4.39.56-10.12-3.71-16.72-4.1-6.58-12.5-13.44-22.67-18.51-2.58-1.23-5.16-2.6-7.87-3.67s-5.35-2.12-8.08-3.15c-5.49-2-11.21-3.87-17-5.48a272.14,272.14,0,0,0-35.49-7.33c-5.93-.88-11.89-1.58-17.5-2.54s-10.76-2.44-12.72-5.29c-3.34-6.66-.27-14.82,5.8-21.18s15.48-11.61,26.31-14.57a86.37,86.37,0,0,0,8.28-2.61,72.87,72.87,0,0,0,7.46-3.15c2.36-1.06,4.33-2.29,6.53-3.37,1.9-1.22,3.93-2.35,5.73-3.55,7.15-4.82,12.56-9.93,15.34-15.3s2.34-11,.1-16c-1.67-2.53-2.65-4.9-5.08-7a35.12,35.12,0,0,0-6.38-5.68c-2.34-1.63-4.18-3.14-6.25-4.3s-3.93-2.09-5.41-2.86c-2.93-1.52-4.51-2.32-4.51-2.32s1.48.84,4.23,2.43c1.37.8,3,1.78,5,3s3.57,2.7,5.71,4.31a30.3,30.3,0,0,1,5.71,5.6c2.18,2.06,2.87,4.35,4.25,6.75a18,18,0,0,1-1.29,15.09c-2.93,5-8.41,9.89-15.52,14.44-1.79,1.13-3.78,2.2-5.65,3.35-2.15,1-4.11,2.15-6.38,3.13a90.92,90.92,0,0,1-14.66,5.33c-11.64,3.17-21.55,8.65-28.24,15.68a29.52,29.52,0,0,0-7,11.57,17.52,17.52,0,0,0-.82,6.38,15.37,15.37,0,0,0,.42,3.06,13.54,13.54,0,0,0,1.42,3.35,15.24,15.24,0,0,0,7.38,4.89,54.05,54.05,0,0,0,9.15,2.18c6.1,1,12.11,1.6,18.08,2.44a265,265,0,0,1,35.08,6.9c5.71,1.51,11.22,3.31,16.68,5.15,2.72,1,5.42,2,8.08,3s5,2.19,7.46,3.29c9.63,4.57,17.49,10.67,21.56,16.71s4.95,11.56,4.55,16a30.32,30.32,0,0,1-3,10.74A39.66,39.66,0,0,1,344.93,349.55Z"/><path class="cls-10" d="M286.82,388a57,57,0,0,0,2.34-6.93c.63-2.39,1.11-4.86,1.58-7.36a77.59,77.59,0,0,0,.79-7.72,74,74,0,0,0,0-8,56.86,56.86,0,0,0-1.29-8.3c-.41-1.68-.61-2.52-1-4.2-.62-1.69-.94-2.53-1.56-4.22-.85-2.84-2.64-5.6-4-8.4s-3.73-5.43-5.59-8.14c-2.26-2.59-4.73-5.1-7.13-7.62-3.39-2.78-5.09-4.15-8.54-6.85-3.54-2.53-5.32-3.78-8.92-6.22s-5.22-3.7-8.74-6.1c-2.82-2.09-5.79-4.07-8.49-6.17s-5.43-4.18-8-6.32a46.38,46.38,0,0,1-6.62-6.7,13.86,13.86,0,0,1-2-3.52,4.7,4.7,0,0,1-.23-1.64c-.09-.42.46-1.09.15-.82l.7-1.91-4.65-8.49c-1.62-2.81-3.08-5.67-4.81-8.44-4.11-6.67-6.18-10-10.33-16.64-8.31-13.24-12.52-19.84-21-33-7.09-11-14.29-22-24.11-31.78a62.25,62.25,0,0,0-18.15-12.74,40.58,40.58,0,0,0-12.81-3.35,38.52,38.52,0,0,0-15.9,2.11,36,36,0,0,1,15.37-1.45,36.57,36.57,0,0,1,12,3.68c6.89,3.47,12,8.21,16.59,13.14,9.18,9.88,15.86,21,22.49,32,3.28,5.54,6.6,11.09,10.27,16.55,4.16,6.58,6.24,9.87,10.37,16.47s6.15,9.9,10.22,16.52c3.31,5.55,6.24,11.2,9.51,16.76.26-.77.41-1.15.67-1.91a4,4,0,0,0-1.73,3.27,6.75,6.75,0,0,0,.42,2.61,16.68,16.68,0,0,0,2.57,4.29,50.33,50.33,0,0,0,7.31,7.12c2.68,2.19,5.45,4.33,8.35,6.38s5.85,4.06,8.76,6.13c3.62,2.37,5.41,3.59,9,6.06s5.45,3.6,9,6.08c3.37,2.51,5,3.79,8.33,6.38,2.37,2.35,4.84,4.68,7.1,7.11,1.88,2.55,4.12,5,5.7,7.68s3.28,5.28,4.22,8c.67,1.62,1,2.44,1.69,4.06.46,1.63.7,2.45,1.16,4.08.95,2.73,1.05,5.4,1.65,8.11a77,77,0,0,1,.5,8c.09,2.64-.14,5.19-.3,7.76A77.81,77.81,0,0,1,286.82,388Z"/><path class="cls-10" d="M197.33,448.66c.45-6.18.48-12.48.51-18.83,0-3.18,0-6.36-.05-9.58s-.19-6.44-.16-9.68c-.14-3.24-.16-6.49-.3-9.76s-.23-6.56-.48-9.86-.28-6.6-.6-9.91-.39-6.66-.74-10-.58-6.68-.9-10c-.52-4-.76-6-1.14-10.05-.44-3.35-1-6.69-1.46-10.05s-1.09-6.69-1.58-10-1-6.67-1.61-10-1.06-6.72-1.67-10.07-1.23-6.71-1.86-10.06a86.89,86.89,0,0,0-2.64-10.09.38.38,0,0,0,0-.1l-.11-.15c-3.53-5.35-7.36-10.51-11.12-15.72s-7.66-10.35-11.71-15.39c-4.88-6-7.34-9.05-12.26-15-4.12-4.92-8-10-12.07-15-8.1-10-16.31-20.05-26.72-28.46-5.3-4.1-11.16-7.87-18.42-10a33.73,33.73,0,0,0-12.14-1.3A32.6,32.6,0,0,0,64,194.25a30.05,30.05,0,0,1,13.73-4A30.75,30.75,0,0,1,89.13,192c6.79,2.4,12.16,6.38,17.05,10.67,9.83,8.57,17.59,18.76,25.29,28.95,7.53,10.32,16.05,20.13,24,30.14,4,5,7.75,10.19,11.61,15.29l11.17,15.54-.15-.24a82.56,82.56,0,0,1,2.74,9.53c.71,3.29,1.49,6.56,2.1,9.89s1.31,6.62,1.9,9.94,1.26,6.62,1.84,10,1.33,6.62,1.79,9.94,1.17,6.59,1.72,9.89c.52,4,.81,6,1.45,9.9.42,3.31.75,6.62,1.21,9.91s.61,6.6,1,9.88.51,6.57.88,9.83.42,6.54.74,9.79.4,6.49.66,9.72c.1,3.23.43,6.44.5,9.65s.3,6.39.42,9.57C197.23,436.12,197.5,442.44,197.33,448.66Z"/><path class="cls-10" d="M153.78,505.31c-1.06-3.52-2.21-7-3.34-10.44S148.09,488,147,484.52s-2.29-6.88-3.38-10.36-2.12-7-3.23-10.43c-2.19-6.91-4.1-14-6.11-21s-3.6-14.22-5.37-21.3c-2-8.53-3-12.86-4.47-21.6-.66-3.63-1.26-7.28-1.65-10.95s-.68-7.4-.86-11.13A127.72,127.72,0,0,1,123,355.05a105.46,105.46,0,0,1,2.26-11.35,73.53,73.53,0,0,1,3.66-10.94c.23-.5.33-.75.55-1.26-.24-.33-.36-.49-.59-.82a77.65,77.65,0,0,0-11.54-12.62,70.39,70.39,0,0,0-13.83-9.74,59.57,59.57,0,0,0-7.84-3.42A48.58,48.58,0,0,0,87.12,303a22.83,22.83,0,0,0-4.49-.34,37.18,37.18,0,0,0-4.6.09,87.71,87.71,0,0,0-9.19,1.15A82.75,82.75,0,0,0,32.7,320.63a72.65,72.65,0,0,0-8.26,7.67,89.56,89.56,0,0,0-7.61,9.27,100.76,100.76,0,0,0-6.75,10.92c-1.21,2.42-1.81,3.64-2.95,6.12s-1.59,3.89-2.61,6.54c1.09-2.52,1.64-3.76,2.79-6.21s1.82-3.48,3.08-5.75A93,93,0,0,1,17.23,339a82.27,82.27,0,0,1,7.6-8.53,86,86,0,0,1,8.13-7,79,79,0,0,1,35-15.14,83.09,83.09,0,0,1,8.91-1.12,35,35,0,0,1,4.33-.09,22.68,22.68,0,0,1,4.22.31,45.1,45.1,0,0,1,8.06,1.82,57.1,57.1,0,0,1,7.48,3.25,68.11,68.11,0,0,1,13.3,9.37,87.75,87.75,0,0,1,11.18,12c0-.84,0-1.25-.07-2.09a77.25,77.25,0,0,0-3.78,11.81,113.93,113.93,0,0,0-2.14,11.83,131.55,131.55,0,0,0-.76,23.41c.24,3.83.53,7.65,1.06,11.41s1.11,7.45,1.83,11.09c1.74,8.71,2.74,13,5,21.52,1.95,7,3.75,14.15,5.9,21.08s4.23,13.91,6.62,20.71c1.22,3.38,2.33,6.83,3.54,10.23s2.49,6.74,3.68,10.16,2.54,6.73,3.74,10.15S152.58,501.86,153.78,505.31Z"/><path class="cls-10" d="M390.27,466.75l-6.46-1.38c34-159.41,107-242.5,107.76-243.32l5.94,4.33C496.79,227.19,423.87,309.18,390.27,466.75Z"/><path class="cls-10" d="M437.36,489.47l-6,2.78c-68.56-147.87-60.06-258.17-60-259.27l6.58.56C377.89,234.63,369.59,343.31,437.36,489.47Z"/><path class="cls-10" d="M415.31,469.51l-6.53-1C419.24,400.06,441.6,359.85,475.24,349c51.49-16.62,109.4,41.6,111.84,44.09l-4.65,7.33c-.57-.58-57.59-60.51-105.18-45.14C446.2,365.31,425.35,403.74,415.31,469.51Z"/><path class="cls-10" d="M390.34,466.29l-6.59-.45c6.11-89.39-7.16-155.06-49.05-181.81C276.49,246.88,233.54,267.76,233,267.92l.25-9.12c3.81-2.84,60.14-16.67,105.63,20.1C379.27,311.58,396.6,374.63,390.34,466.29Z"/><path class="cls-10" d="M320.84,487l2.75,7.44c17.17-30.44,41.76-48.56,73.1-53.86,34.74-5.86,65.79,6.59,66.1,6.71l2.61-1.86c-1.34-.55-33.23-19.23-70.11-13C362.51,438,338.45,455.8,320.84,487Z"/><path class="cls-8" d="M595.67,295.32a5.09,5.09,0,0,0,2.94-1.52S597.51,294.35,595.67,295.32Z"/><path class="cls-9" d="M476.12,119.48c-5.83-24,1.51-51,23.6-64.27-26,5.49-67.9,24.73-66.77,54.09.79,20.37,4.26,36.81,28.17,46.66s20.6,42.84,4.28,27.69c-18.47-17.14-45.35-49-39.13-76.74-21.25,14.87-45.11,54.44-23.49,76.26,16.07,16.21,30.62-7.66,42.48.47s37.63,27.23,21.24,35.85c-21.85,11.49-61-8.37-70.92-32.41-8.8,34.14-6.61,100.75,24.09,118.63,16.39,9.55,38.9,12.18,42.91-15.59s14.81-59.75,18.29-58.64,3.48,1.12,3.48,1.12,9,2.57-.72,22.63C469,285.5,467.54,351,508.26,358.52c36.78,6.8,44-28.36,44-28.36s-18.63,1.72-32.73-18.13-9.9-52.71,2.31-27.91,27.29,44.33,37.69,37.32c8.43-5.69,28.34-22,36.18-26.12-3.79.9-11.89.49-29.62-7.09-28.14-12-45.8-41-32-38.94s36.06,28.79,50.7,33.87,33.3-9.22,44.89-10.26C607.18,262.63,597,257.37,579,247.52S545.65,215.25,567.46,227c22.1,11.89,52.25,35.69,79.19,28.61,8.65-17.94,24.9-21.16,24.9-21.16s-39.46-11.23-52.1-11.69S572.69,207.65,573,199.8s37.38,9.5,50.19,16c18.53,9.42,47.6,10.83,70.47,10.1-29.65-12.68-86.54-24.85-95.52-48-4.56-11.77,35.72,3,53.31,16.08s30.68,17,61.71,24.18c-30.45-20.54-35.74-21.2-57.17-37.39s-38.63-15.29-39.17-24.43,33.67,3.76,59,20,57.49,23.08,64.17,19.79,18.23-30.46,18.23-30.46c-9.8-13.26-15.1-19.9-26.44-33,0,0-36.5-11.68-49.38-5.56s-22.72-29.46,43.22-5.83c-25.61-23.56-43.13-27.8-43.13-27.8s-39.55-1-45,16.11-43.37,15.71-26.69,2.63c19.82-15.55,47.59-20.9,72.92-20.74C671.6,83.2,665.34,79.3,652.54,72c0,0-52.48,4.5-62.15,24.73s-4.62,32.2-14.33,33-18-20.41,5.29-40.13,59.18-19.5,59.18-19.5c-24.6-9.3-37.17-12.84-62.35-17.3,0,0-41.65,36.64-44.26,53.46s-23,18.41-18.31-2.27c5.56-24.56,25.54-44.34,50.45-51-27.29-6.11-61.26,1.91-67.66,11.34s-13.26,39.59-8,55S482.7,146.56,476.12,119.48Zm60.59,111c-4.72,13.75-7.85-1.51-13.2-3.41-2.74-2.59,2.5-3.94,2.48-7.19C532.65,220,538,228.67,536.71,230.52Zm137-82.24c12.9,11.84,28,12.95,46.81,21.87,8.07,4,5.51,11.26-2,10.33-23.19-2-44.73-13.84-59.29-27.13-7.81-6.83-6.17-7.24-4.17-8C659.8,144,667,143.05,673.74,148.28ZM519.9,167q-2.77,2.59-5.45,5.34c-13.28.25-27.54-19.08-10.71-33.37C515,144.06,519.49,154.6,519.9,167Z"/><path class="cls-8" d="M476.12,119.48c-5.83-24,1.51-51,23.6-64.27-26,5.49-67.9,24.73-66.77,54.09.79,20.37,4.26,36.81,28.17,46.66s20.6,42.84,4.28,27.69c-18.47-17.14-45.35-49-39.13-76.74-21.25,14.87-45.11,54.44-23.49,76.26,16.07,16.21,30.62-7.66,42.48.47s37.63,27.23,21.24,35.85c-21.85,11.49-61-8.37-70.92-32.41-8.8,34.14-6.61,100.75,24.09,118.63,16.39,9.55,38.9,12.18,42.91-15.59s14.81-59.75,18.29-58.64,3.48,1.12,3.48,1.12a5.73,5.73,0,0,1,1.89,1.23c58.63-68.69,116.18-109,209.55-97.16,20.27,5.06,41.33,16.09,62.24,29.42.16-.3.24-.48.24-.48-9.8-13.26-15.1-19.9-26.44-33,0,0-36.5-11.68-49.38-5.56s-22.72-29.46,43.22-5.83c-25.61-23.56-43.13-27.8-43.13-27.8s-39.55-1-45,16.11-43.37,15.71-26.69,2.63c19.82-15.55,47.59-20.9,72.92-20.74C671.6,83.2,665.34,79.3,652.54,72c0,0-52.48,4.5-62.15,24.73s-4.62,32.2-14.33,33-18-20.41,5.29-40.13,59.18-19.5,59.18-19.5c-24.6-9.3-37.17-12.84-62.35-17.3,0,0-41.65,36.64-44.26,53.46s-23,18.41-18.31-2.27c5.56-24.56,25.54-44.34,50.45-51-27.29-6.11-61.26,1.91-67.66,11.34s-13.26,39.59-8,55S482.7,146.56,476.12,119.48ZM519.9,167q-2.77,2.59-5.45,5.34c-13.28.25-27.54-19.08-10.71-33.37C515,144.06,519.49,154.6,519.9,167Z"/><path class="cls-10" d="M754.41,163.45c2.37,1.71,3.62,2.64,3.62,2.64s-1.23-.94-3.57-2.66-6-4.17-10.77-7a184.59,184.59,0,0,0-41-17.74c-36.23-10.83-75.63-10.16-110.89,4a153,153,0,0,0-24.35,12.4c-3.81,2.39-7.48,4.86-11,7.37-1.76,1.27-3.49,2.56-5.19,3.89s-3.44,2.56-5.11,3.87c-3.29,2.69-6.53,5.3-9.65,8s-6.12,5.33-9,8c-5.74,5.34-11,10.53-15.81,15.52-9.58,9.89-17.16,18.6-22.43,24.57-2.32,2.57-4.14,4.64-5.5,6.12l.59.2s2.93.86,3.63,5.35c1.24-1.49,2.69-3.27,4.42-5.35,5.32-6.49,12.86-15.77,22.37-26.17,4.72-5.25,10-10.7,15.66-16.27,2.82-2.82,5.86-5.51,8.89-8.35s6.3-5.49,9.56-8.27c1.64-1.37,3.32-2.72,5-4s3.39-2.71,5.15-4q5.29-3.92,10.82-7.56a147.52,147.52,0,0,1,23.8-12.75c34.44-14.65,73.23-15.93,109.06-5.74a180.82,180.82,0,0,1,40.81,17.11C748.37,159.32,752,161.76,754.41,163.45Z"/><path class="cls-10" d="M537.54,340.88s-.64.43-1.89,1.09a33.71,33.71,0,0,1-5.58,2.41,25.93,25.93,0,0,1-9.41,1.32c-3.76-.15-8.41-1.43-13-6.18-4.63-4.59-8.69-12.78-10.95-22.08-.52-2.35-1.16-4.72-1.52-7.15s-.75-4.79-1.08-7.21c-.63-4.89-1.08-9.94-1.32-15a230.25,230.25,0,0,1,.64-30.51c.39-5,.93-10.06,1.21-14.85s0-9.29-2-11.43c-4.84-4-12.11-3-18.47.79S461.74,242.63,457.28,251c-1.32,2.3-2.26,4.27-3.7,6.3a64.44,64.44,0,0,1-4,5.54c-1.32,1.73-2.7,3.13-4,4.73-1.35,1.33-2.66,2.78-4,4-5.3,5-10.51,8.45-15.43,9.72A15.11,15.11,0,0,1,413,278.38c-1.76-1.85-3.52-3.09-4.8-5.48a30.32,30.32,0,0,1-3.47-6.31c-.9-2.22-1.79-4-2.35-5.94s-1-3.62-1.34-5c-.7-2.7-1.05-4.14-1.05-4.14s.4,1.37,1.2,3.93q.6,1.91,1.48,4.67c.63,1.77,1.56,3.43,2.48,5.5a26.32,26.32,0,0,0,3.52,5.74c1.28,2.17,3,3.16,4.75,4.75a15.09,15.09,0,0,0,12.62,1.76c4.7-1.45,9.71-5.05,14.77-10,1.26-1.25,2.51-2.69,3.81-4,1.22-1.58,2.54-3,3.77-4.64a77,77,0,0,0,7.12-11c4.78-8.95,11.14-16.06,18.16-20.24a24.93,24.93,0,0,1,10.83-3.61,14.75,14.75,0,0,1,5.39.51,13.74,13.74,0,0,1,2.44.92,11.47,11.47,0,0,1,2.47,1.8,12.87,12.87,0,0,1,2.64,7,46.6,46.6,0,0,1,.07,7.92c-.36,5.18-1,10.23-1.39,15.29a223.46,223.46,0,0,0-.91,30.1c.17,5,.61,9.82,1.11,14.65.28,2.42.58,4.82.92,7.2s.86,4.5,1.3,6.73c1.94,8.77,5.48,16.37,9.67,20.84A20,20,0,0,0,520.47,344a25.43,25.43,0,0,0,9.38-.45A33.53,33.53,0,0,0,537.54,340.88Z"/><path class="cls-10" d="M580,300.39a51.1,51.1,0,0,1-6.13.62c-2.09.07-4.21,0-6.34-.09a64.52,64.52,0,0,1-13.07-2.29A48.33,48.33,0,0,1,547.9,296l-3.27-1.61-3.17-2.07c-2.17-1.24-4.1-3.22-6.14-4.89s-3.75-4.08-5.63-6.12c-1.7-2.33-3.29-4.83-4.91-7.28-1.66-3.3-2.46-5-4-8.29-1.41-3.38-2.1-5.08-3.43-8.49s-2.07-5-3.38-8.32c-1.18-2.71-2.25-5.51-3.47-8.12s-2.4-5.25-3.69-7.72a39,39,0,0,0-4.26-6.7,11.55,11.55,0,0,0-2.52-2.32,3.75,3.75,0,0,0-1.29-.49c-.34-.16-1,.16-.71,0l-1.69.21-6.1-5.41c-2-1.84-4.07-3.59-6-5.52-4.71-4.63-7.05-6.94-11.72-11.6-9.32-9.31-13.95-14-23.14-23.43-7.66-7.87-15.34-15.85-21.57-25.75a52.36,52.36,0,0,1-7.05-17.29,34.34,34.34,0,0,1-.35-11.14A32.41,32.41,0,0,1,425.07,111,30.1,30.1,0,0,0,421,123.31a31,31,0,0,0,.78,10.51,48.8,48.8,0,0,0,7.67,16.09c6.39,9.39,14.22,16.94,22.06,24.46,3.94,3.73,7.86,7.5,11.66,11.54,4.61,4.65,6.93,7,11.58,11.59s7,6.91,11.64,11.5c3.94,3.75,8,7.22,12,10.95-.69.06-1,.11-1.7.19a3.39,3.39,0,0,1,3-.81,5.9,5.9,0,0,1,2.06.82,14.05,14.05,0,0,1,3,2.92,43.08,43.08,0,0,1,4.48,7.34c1.29,2.62,2.54,5.29,3.67,8.06s2.24,5.56,3.39,8.33c1.27,3.43,1.93,5.12,3.29,8.52s1.94,5.14,3.3,8.54c1.44,3.23,2.17,4.83,3.67,8,1.49,2.39,2.95,4.85,4.52,7.17,1.74,2,3.36,4.32,5.23,6.11s3.71,3.68,5.78,5l3,2.16c1.26.68,1.88,1,3.13,1.72,2.06,1.28,4.24,1.87,6.35,2.86a62.06,62.06,0,0,0,6.44,1.91c2.15.57,4.29.86,6.43,1.21A65.49,65.49,0,0,0,580,300.39Z"/><path class="cls-10" d="M646.58,238.29c-5.16-.78-10.35-1.95-15.56-3.11-2.61-.6-5.23-1.18-7.85-1.84s-5.25-1.36-7.92-1.94c-2.63-.73-5.3-1.35-8-2.08s-5.34-1.42-8-2.24-5.37-1.47-8-2.35-5.39-1.57-8-2.48-5.37-1.73-8.06-2.62c-3.19-1.18-4.79-1.75-8-2.83-2.67-1-5.3-2.06-8-3.07s-5.28-2.15-7.93-3.18-5.28-2.09-7.93-3.2-5.32-2.13-8-3.26-5.27-2.26-7.9-3.42a72.38,72.38,0,0,1-7.79-4,.35.35,0,0,0-.08-.05l-.1-.11c-3.73-3.9-7.25-8-10.82-12.08s-7.06-8.23-10.44-12.5c-4-5.14-6.05-7.72-10.05-12.88-3.26-4.31-6.74-8.44-10.07-12.73-6.69-8.52-13.4-17.15-18.35-27.27A46.75,46.75,0,0,1,455,102a28.15,28.15,0,0,1,1.21-10.21,27.22,27.22,0,0,1,6.57-10.69,25.28,25.28,0,0,0-5.87,10.52,25.83,25.83,0,0,0-.69,9.72c.71,6,3,11.19,5.57,16,5.19,9.69,12.1,18,19,26.2s13.53,16.94,20.25,25.34c3.36,4.23,6.92,8.27,10.37,12.4l10.67,12.09-.17-.18a68.72,68.72,0,0,0,7.31,4c2.57,1.2,5.1,2.46,7.73,3.57s5.18,2.33,7.8,3.43,5.2,2.27,7.84,3.37,5.18,2.35,7.82,3.34,5.19,2.21,7.8,3.27c3.17,1.17,4.74,1.78,7.86,3,2.63,1,5.29,1.86,7.9,2.86s5.31,1.74,7.92,2.69,5.29,1.65,7.9,2.56,5.3,1.58,7.9,2.44,5.26,1.55,7.86,2.37,5.21,1.56,7.82,2.23,5.2,1.43,7.78,2.13C636.3,235.86,641.43,237.26,646.58,238.29Z"/><path class="cls-10" d="M701.24,213.16c-2.68-1.53-5.31-3.12-7.94-4.7s-5.2-3.22-7.84-4.77-5.23-3.17-7.88-4.72-5.33-3.05-8-4.6c-5.26-3.1-10.72-6-16.08-9s-11-5.62-16.48-8.4c-6.62-3.27-10-4.83-16.89-7.71-2.86-1.22-5.74-2.41-8.67-3.41s-6-1.95-9-2.79a106.49,106.49,0,0,0-18.87-3.37,90,90,0,0,0-9.73-.28,62.49,62.49,0,0,0-9.67,1l-1.13.21-.57-.63a66.65,66.65,0,0,1-8.2-11.84A59.58,59.58,0,0,1,549,135a49.54,49.54,0,0,1-1.34-7.09,40.43,40.43,0,0,1,0-7.38,20.75,20.75,0,0,1,.57-3.76,30.69,30.69,0,0,1,.94-3.75,70.52,70.52,0,0,1,2.67-7.33,69.64,69.64,0,0,1,20.54-26.52,60.59,60.59,0,0,1,7.84-5.35,76.94,76.94,0,0,1,9-4.51,83,83,0,0,1,10.23-3.49c2.21-.54,3.33-.8,5.58-1.27s3.49-.58,5.85-.92c-2.27.42-3.39.64-5.62,1.13s-3.2.84-5.29,1.44a82.08,82.08,0,0,0-9.7,3.7,71,71,0,0,0-8.42,4.65,67.83,67.83,0,0,0-7.29,5.35,70.7,70.7,0,0,0-21.59,33,30.06,30.06,0,0,0-.89,3.54,18,18,0,0,0-.53,3.52,37.64,37.64,0,0,0,0,7,48.06,48.06,0,0,0,1.26,6.75,57.68,57.68,0,0,0,5.2,12.67,73.5,73.5,0,0,0,7.77,11.43c-.68-.18-1-.27-1.71-.44a63.86,63.86,0,0,1,10.42-.89,94.17,94.17,0,0,1,10.11.46,110.13,110.13,0,0,1,19.36,3.76c3.1.92,6.17,1.87,9.17,3s5.91,2.31,8.76,3.58c6.82,3.06,10.18,4.7,16.73,8.13,5.39,2.91,10.91,5.73,16.2,8.79s10.63,6.08,15.76,9.32c2.55,1.64,5.17,3.2,7.73,4.83s5.07,3.31,7.65,4.92,5.06,3.35,7.64,5S698.64,211.54,701.24,213.16Z"/><path class="cls-8" d="M97.46,527.46c-3.25,4.1-3.58,6.73-3.58,6.73S95.21,531.67,97.46,527.46Z"/><path class="cls-9" d="M457.91,576.77c43.4,13.94,68.95,37.16,72.82,60.39,12.39-28.65,22.45-73.55-6.19-86.71s-46.45-24-90.59-13.16-73.55-19.36-34.07-19.36,127.75,12.39,136.27,29.42c13.93-30.19,4.64-68.13-36.39-70.45s-43.36,24.78-68.91,26.32S348,509.42,368.15,487s113-31.74,140.9-17c-7-33.29-52.65-85.16-90.58-85.94s-79,3.1-79,32.52,2.71,68.13-3.87,69.68l-6.58,1.55s-19.75,4.65-13.36-23.22,6.39-109.17-70.84-99.88S159.5,426,159.5,426s34.83-14.74,66.77,0,40.65,55.38,6.39,35.64S165.3,425,147.88,444.77c-14.11,16-40.79,64.75-50.42,82.69,5.54-7,19.58-18.23,55.06-28.11,56.33-15.67,106.27,2.91,82.46,14.52s-81.88,3.49-109.74,16.26-40.65,65-53.42,88.84C113,589.35,133.37,581.81,169.37,569s82.44-7.54,39.48,8.13S84.78,620.9,80.14,673.55c22.45,36.39,24.77,67.35,24.77,67.35s41-63.48,52.65-83.61,69.68-53.42,80.51-45.68-47.2,43.86-72,58.07S113.43,761,121.17,786.58c42.58-77.42,98.33-133.16,128.52-123.09s-26.32,47.22-57.29,67.35-45.68,41.81-47.23,91.36c33.29-46.46,37.17-53.42,73.55-77.42s41.81-46.46,59.61-41.81-17.8,41.81-49.54,72.77-24.78,78.2-10.07,86.71,96,18.59,96,18.59l51.1-29.42s-3.09-37.94-23.23-54.2,38.71-18.58,44.91,48c32.52-25.55,33.29-41.8,33.29-41.8s-13.16-41-50.32-53.42-27.1-57.29-3.1-31.75,58.84,86.71,58.84,86.71l30.19-27.87S440.14,723.1,403.75,703s-59.6-22.45-55-34.06,42.58-6.2,72,27.86,36.39,68.91,36.39,68.91l37.16-55.74s-49.55-58.07-75.1-71.23-10.06-34,19.35-16.24,56.52,52.63,58.85,75.85c20.9-23.22,29.42-56.51,19.35-67.35s-48-35.62-75.1-41.81S414.53,562.84,457.91,576.77ZM248,537.42c-6.59-19.8,13.2-6.6,23.1-9.9,6.6,0,0,6.6,3.3,9.9C264.53,544,248,540.72,248,537.42Zm42.9,244.2c-23.1,13.2-19.8,33-26.4,56.1-3.3,9.9-23.09,6.6-26.4-3.3-12.23-30.6,11.24-59,39-73.43,14.24-7.84,15.27-5.36,17.12-2.47C297.53,765.12,300.83,774.4,290.93,781.62Zm52.81-201.3v-9.9c16.49-13.2,56.09-9.9,56.09,16.5C380,593.52,360.23,590.22,343.74,580.32Z"/><path class="cls-8" d="M457.91,576.77c43.4,13.94,68.95,37.16,72.82,60.39,12.39-28.65,22.45-73.55-6.19-86.71s-46.45-24-90.59-13.16-73.55-19.36-34.07-19.36,127.75,12.39,136.27,29.42c13.93-30.19,4.64-68.13-36.39-70.45s-43.36,24.78-68.91,26.32S348,509.42,368.15,487s113-31.74,140.9-17c-7-33.29-52.65-85.16-90.58-85.94s-79,3.1-79,32.52,2.71,68.13-3.87,69.68l-6.58,1.55A15.1,15.1,0,0,1,325,488c-40.76,105-4.1,215.67,2.23,323.33,0,23-7.38,46.08-14,69.53l1.46.19,51.1-29.42s-3.09-37.94-23.23-54.2,38.71-18.58,44.91,48c32.52-25.55,33.29-41.8,33.29-41.8s-13.16-41-50.32-53.42-27.1-57.29-3.1-31.75,58.84,86.71,58.84,86.71l30.19-27.87S440.14,723.1,403.75,703s-59.6-22.45-55-34.06,42.58-6.2,72,27.86,36.39,68.91,36.39,68.91l37.16-55.74s-49.55-58.07-75.1-71.23-10.06-34,19.35-16.24,56.52,52.63,58.85,75.85c20.9-23.22,29.42-56.51,19.35-67.35s-48-35.62-75.1-41.81S414.53,562.84,457.91,576.77Zm-114.17,3.55v-9.9c16.49-13.2,56.09-9.9,56.09,16.5C380,593.52,360.23,590.22,343.74,580.32Z"/><path class="cls-10" d="M319.73,864.65c-.75,2.68-1.6,5-2.32,7s-1.48,3.72-2.12,5.06l-2,4.1,2.1-4.06c.67-1.33,1.33-3,2.2-5s1.66-4.36,2.45-7c3.37-10.63,5.9-26.51,6.41-45.62s-.66-41.43-2.91-65.2-5.43-49-8.52-74.3c-1.55-12.63-3.08-25.27-4.46-37.69s-2.55-24.62-2.87-36.5A318.91,318.91,0,0,1,311.93,541a239.71,239.71,0,0,1,11.77-43.93c1.41-3.67,2.7-6.69,3.78-9.08a13.88,13.88,0,0,1-6.64-1c-.93,2.22-2,4.81-3.06,7.83a245,245,0,0,0-11.38,45.23,325,325,0,0,0-3.31,65.54c.52,12,1.86,24.38,3.49,36.77s3.31,25.06,5.08,37.66c3.51,25.21,7.11,50.39,9.74,74.09s4.23,45.9,4,65S322.92,854,319.73,864.65Z"/><path class="cls-10" d="M186.57,400.89s1.22-1,3.64-2.56a94.83,94.83,0,0,1,10.95-6.22,80,80,0,0,1,18.51-6.46c7.39-1.55,16.38-2.08,25.4,1.15s17.29,10.2,23,19.37a152.58,152.58,0,0,1,7.77,14.55c2.47,5,4.8,10.26,7.11,15.61,4.62,10.68,8.85,21.95,13.3,33.25a141.23,141.23,0,0,0,7.51,16.55c2.88,5.13,6.87,10.12,12.42,10.58a15.49,15.49,0,0,0,4.13-.2,34,34,0,0,0,4.44-1,28.71,28.71,0,0,0,4.14-1.45,31.58,31.58,0,0,0,4-1.89,58.65,58.65,0,0,0,14.21-10.79,80.41,80.41,0,0,0,18.24-29.69c.48-1.32,1-2.78,1.54-4.1a42.86,42.86,0,0,1,2-4,58.24,58.24,0,0,1,4.72-7.25,84.72,84.72,0,0,1,11.21-12.22,80.43,80.43,0,0,1,25.7-15.87,54.09,54.09,0,0,1,25.26-3.17,51.51,51.51,0,0,1,18.6,6.13,61.82,61.82,0,0,1,10.31,7.21l3.32,3-3.43-2.83a65.45,65.45,0,0,0-10.51-6.78,50.23,50.23,0,0,0-18.43-5.47A54.46,54.46,0,0,0,411.19,410a78.31,78.31,0,0,0-24.71,15.91,80.91,80.91,0,0,0-10.66,12.06,63,63,0,0,0-4.44,7c-.66,1.23-1.26,2.46-1.79,3.7s-1,2.61-1.48,4a83.24,83.24,0,0,1-18.73,30.91A61.41,61.41,0,0,1,334.47,495a34.93,34.93,0,0,1-4.32,2.06,32.2,32.2,0,0,1-4.58,1.62,37.92,37.92,0,0,1-4.6,1.07,18.2,18.2,0,0,1-5.11.26,15.41,15.41,0,0,1-9.11-4.48,33.76,33.76,0,0,1-5.74-7.82,144.89,144.89,0,0,1-7.59-17c-4.4-11.4-8.53-22.62-13.07-33.26-2.24-5.33-4.59-10.52-6.91-15.57a155.91,155.91,0,0,0-7.37-14.44c-5.38-8.93-13.08-15.77-21.63-18.9s-17.24-3-24.54-1.69a79.07,79.07,0,0,0-18.47,5.84,105,105,0,0,0-11.12,5.79C187.83,400,186.57,400.89,186.57,400.89Z"/><path class="cls-10" d="M120.43,498.43a117.34,117.34,0,0,1,21.78-15.22A123.4,123.4,0,0,1,166.81,473a102.26,102.26,0,0,1,13.08-2.84A94.89,94.89,0,0,1,193.25,469c2.24,0,4.48,0,6.72.16s4.46.35,6.69.64a98.84,98.84,0,0,1,13.17,2.68c2.16.62,4.27,1.36,6.41,2L232.5,477l6.09,2.88,5.88,3.28,11.47,6.67c3.86,2.12,7.73,4.23,11.62,6.28s7.86,4,11.9,5.71,8.09,3.44,12.2,4.89a67,67,0,0,0,12.56,3.15,27.12,27.12,0,0,0,6.22.17,10.92,10.92,0,0,0,2.77-.7,5.59,5.59,0,0,0,1.14-.6,6.53,6.53,0,0,0,.59-.55l1.49-1,14.19.2c4.72.12,9.45.08,14.17.32l28.33,1.34,28.32,1.37c9.38.62,18.81.89,28.25,1.34,18.86.85,37.81,1.76,56.52,4.9,9.32,1.66,18.64,3.83,27.35,7.7a46.16,46.16,0,0,1,12,7.53,24.68,24.68,0,0,1,7.51,11.85,24.38,24.38,0,0,0-7.85-11.46,45.75,45.75,0,0,0-12.06-7.1c-8.69-3.58-18-5.48-27.25-6.89-18.61-2.8-37.5-3.4-56.35-3.94-9.44-.25-18.89-.47-28.35-1.06L373,512.1l-28.26-1.19c-4.71-.21-9.42-.15-14.14-.23l-14.14-.21,1.49-1a6.37,6.37,0,0,1-3.44,2.81,14.49,14.49,0,0,1-3.65.92,30.35,30.35,0,0,1-7-.2,69.81,69.81,0,0,1-13.16-3.38c-4.23-1.51-8.39-3.16-12.43-5s-8-3.88-12-5.85-7.83-4.25-11.72-6.42L243,485.58l-5.71-3.23-5.88-2.89-6.06-2.5c-2.07-.69-4.13-1.45-6.22-2.09a94.56,94.56,0,0,0-12.8-2.82c-2.16-.32-4.33-.61-6.52-.73s-4.36-.24-6.56-.27a94.33,94.33,0,0,0-13.11.85,112.37,112.37,0,0,0-12.93,2.56,121.6,121.6,0,0,0-24.61,9.5c-3.93,2-7.75,4.25-11.46,6.65A103.78,103.78,0,0,0,120.43,498.43Z"/><path class="cls-10" d="M110,690.32a192.09,192.09,0,0,1,17.46-25.2,285.16,285.16,0,0,1,43.46-43.3q12-9.63,24.9-18.05c4.28-2.82,8.67-5.49,13.07-8.1l6.69-3.82,6.78-3.63c4.57-2.33,9.15-4.67,13.84-6.75s9.4-4.12,14.08-6.15,9.41-4,14.19-5.87l7.14-2.86,7.23-2.65c4.78-1.83,9.68-3.39,14.55-5a149.35,149.35,0,0,1,15-4h.25q7.11,0,14.19.16c4.73.11,9.46.15,14.17.32l14.18.5c4.72.19,9.44.27,14.16.6l28.31,1.65c9.38.61,18.82.89,28.25,1.33,18.86.85,37.82,1.76,56.53,4.88,9.32,1.67,18.64,3.85,27.35,7.71a46.14,46.14,0,0,1,12.06,7.52,24.61,24.61,0,0,1,7.48,11.87A24.24,24.24,0,0,0,517.52,580a45.14,45.14,0,0,0-12.08-7.09c-8.69-3.57-18-5.47-27.25-6.89-18.62-2.79-37.51-3.39-56.36-3.93-9.44-.24-18.88-.48-28.35-1l-28.26-1.5c-4.7-.29-9.42-.35-14.14-.51l-14.14-.43c-4.71-.14-9.43-.15-14.14-.24l-14.14-.16.25,0A146.06,146.06,0,0,0,294.32,562c-4.84,1.56-9.69,3.09-14.46,4.87l-7.19,2.6-7.1,2.79q-7.12,2.73-14.18,5.76c-4.71,2-9.45,3.89-14,6s-9.21,4.32-13.78,6.57l-6.78,3.51-6.67,3.7c-4.41,2.55-8.8,5.14-13.08,7.88q-12.89,8.19-24.95,17.62t-23.11,20A282.76,282.76,0,0,0,128,665.6,204.4,204.4,0,0,0,110,690.32Z"/><path class="cls-10" d="M151.78,803.62c2.69-4,5.62-7.84,8.63-11.62s6.18-7.4,9.28-11.1,6.43-7.19,9.67-10.77,6.47-7.17,9.9-10.56l10.19-10.29c3.35-3.47,6.9-6.74,10.4-10.06l10.52-10c3.47-3.36,7.07-6.56,10.69-9.76l21.65-19.18c3.62-3.19,7.25-6.37,10.68-9.69s6.85-6.71,10.19-10.13l4.91-5.26,4.73-5.4q4.63-5.49,9-11.21c2.82-3.87,5.61-7.76,8.13-11.81a107.19,107.19,0,0,0,6.84-12.41l.4-.89.9-.1a158.43,158.43,0,0,1,25.85-.54,160.23,160.23,0,0,1,25.58,3.41,116.78,116.78,0,0,1,24.55,8.16,91.13,91.13,0,0,1,11.34,6.33c3.59,2.26,7.13,4.69,10.65,7.18s6.9,5.11,10.19,7.87,6.55,5.54,9.72,8.41l4.68,4.43,4.49,4.6c2.93,3.14,5.83,6.3,8.5,9.65,1.39,1.64,2.72,3.31,4,5.06s2.58,3.43,3.73,5.24c2.43,3.53,4.64,7.2,6.72,10.94,1,1.91,2,3.78,2.94,5.71l2.62,5.86,2.23,6,1.81,6.14-2.09-6L463.48,726l-2.78-5.74c-1-1.89-2.08-3.71-3.11-5.56-2.2-3.64-4.5-7.21-7-10.63-1.2-1.75-2.55-3.39-3.86-5.06s-2.63-3.33-4-4.91c-2.72-3.26-5.65-6.33-8.6-9.38l-4.54-4.46-4.7-4.28c-3.21-2.78-6.42-5.55-9.79-8.13s-6.77-5.1-10.22-7.56-7-4.79-10.6-7a86.32,86.32,0,0,0-11-6.07,113.2,113.2,0,0,0-23.95-7.82,156.82,156.82,0,0,0-25.11-3.22c-4.21-.21-8.44-.26-12.67-.18s-8.47.3-12.6.75l1.31-1A108,108,0,0,1,303,648.53c-2.59,4.13-5.44,8.07-8.32,12s-6,7.63-9.16,11.32l-4.81,5.45-5,5.29c-3.4,3.45-6.77,6.92-10.36,10.2s-7.16,6.52-10.79,9.69l-21.87,18.92c-3.65,3.13-7.3,6.27-10.81,9.57l-10.64,9.76c-3.55,3.26-7.14,6.47-10.53,9.89l-10.34,10.09c-3.51,3.3-6.79,6.82-10.14,10.28s-6.76,6.87-9.92,10.5-6.52,7.09-9.55,10.84S154.6,799.7,151.78,803.62Z"/><path class="cls-8" d="M487.7,524.65c.3,2.94,1.43,4,1.43,4S488.63,527.16,487.7,524.65Z"/><path class="cls-9" d="M732.4,401.85c31.67-3.37,64.85,10.57,78,41-2.62-34.09-20.07-90.85-57.74-94.38-26.14-2.45-47.7-.82-64.33,28s-58.18,19.05-36.07.78c25-20.66,70.17-49.6,104.59-36.93-15.38-29.64-61.84-66.82-93.35-42.92-23.42,17.76,4.57,40.38-7.81,54.15s-41.12,43.42-49.36,21c-11-29.83,21-76.43,53.39-85-42.08-17-127.48-25.52-155.51,10.63-15,19.3-22.13,47.59,12.63,57.42s73.76,29,71.75,33.29-2,4.24-2,4.24-4.81,11-28.76-4.75c-36.16-23.83-119.52-36.77-136,13.93-14.92,45.81,28.75,60.92,28.75,60.92s1-24.07,28.68-38.7,69-3.7,35.24,7.68-61.22,27.32-54,41.78c5.84,11.72,23.25,39.9,27.22,50.61-.52-5,1.38-15.27,14.06-36.61,20.14-33.88,60.11-51.5,55.13-34.22S514,495,505.06,512.79s6.13,44.08,5.49,59.05c16.91-27,25.37-39.1,41-60.4s46.84-37.07,28.16-11.21c-18.92,26.19-54.41,60.64-49.94,96.22,21.45,14.08,22.8,35.37,22.8,35.37s21-48.46,23.74-64.52,27.19-57.13,37.16-55.37S595,558.05,584.52,573.29c-15.17,22.06-21.89,58.93-24.83,88.24,21.2-35.7,46.37-106.26,77.51-113.79,15.8-3.82-9.94,45.08-29.56,65.33s-26.87,36.28-41.32,74.66c31.38-35.38,33.11-42,57.42-66.62s26.06-46.72,37.81-45.87-10.51,42.35-35.5,71.94-39.2,69.48-36.13,78.56,35.78,28.43,35.78,28.43c18.59-10.26,28-15.89,46.59-28.16,0,0,21.09-44.6,15.46-62.08s41.46-24,.12,56.16c34.42-28.71,42.8-50.35,42.8-50.35s8-50.31-12.93-60.21-12.7-58,1.17-34.51c16.48,27.93,18.61,64.29,14.12,96.6,12.55-14.11,18.6-21.44,30.06-36.54,0,0,3.13-67.76-21-83.51s-40.32-11.36-39.7-23.9,29.11-19.57,50.32,13.56,14.86,78.83,14.86,78.83c16-29.81,22.69-45.26,32.65-76.65,0,0-39.71-59.37-60.74-65.55s-19.6-32.46,6-23c30.41,11.26,52.27,40.1,56.6,73,12.42-33.82,7.94-78.53-3-88.3S750.74,416,730.19,420.14,696.72,405.66,732.4,401.85Zm-152,58.53c-16.75-8.36,3.26-9.77,6.59-16.28,3.77-3.06,4.6,3.86,8.76,4.38C594.46,457,582.55,462.26,580.4,460.38Zm81.75,188.84c-17.3,14.46-21.28,33.54-35.84,56-6.5,9.62-15.31,5.13-12.86-4.31,6.46-29.27,25.25-54.75,44.68-71.09,10-8.81,10.29-6.66,11-4C670,632.15,670,641.45,662.15,649.22Zm2.22-199.53q-2.85-4-5.9-7.87c1.94-17,29-31.92,44.4-8C694.44,447.29,680.22,451.26,664.37,449.69Z"/><path class="cls-8" d="M732.4,401.85c31.67-3.37,64.85,10.57,78,41-2.62-34.09-20.07-90.85-57.74-94.38-26.14-2.45-47.7-.82-64.33,28s-58.18,19.05-36.07.78c25-20.66,70.17-49.6,104.59-36.93-15.38-29.64-61.84-66.82-93.35-42.92-23.42,17.76,4.57,40.38-7.81,54.15s-41.12,43.42-49.36,21c-11-29.83,21-76.43,53.39-85-42.08-17-127.48-25.52-155.51,10.63-15,19.3-22.13,47.59,12.63,57.42s73.76,29,71.75,33.29-2,4.24-2,4.24a7.59,7.59,0,0,1-1.89,2.22c77.74,86.46,119.4,166.75,88.5,283.93-9.89,25-27.53,50-48.09,74.47l.56.37c18.59-10.26,28-15.89,46.59-28.16,0,0,21.09-44.6,15.46-62.08s41.46-24,.12,56.16c34.42-28.71,42.8-50.35,42.8-50.35s8-50.31-12.93-60.21-12.7-58,1.17-34.51c16.48,27.93,18.61,64.29,14.12,96.6,12.55-14.11,18.6-21.44,30.06-36.54,0,0,3.13-67.76-21-83.51s-40.32-11.36-39.7-23.9,29.11-19.57,50.32,13.56,14.86,78.83,14.86,78.83c16-29.81,22.69-45.26,32.65-76.65,0,0-39.71-59.37-60.74-65.55s-19.6-32.46,6-23c30.41,11.26,52.27,40.1,56.6,73,12.42-33.82,7.94-78.53-3-88.3S750.74,416,730.19,420.14,696.72,405.66,732.4,401.85Zm-68,47.84q-2.85-4-5.9-7.87c1.94-17,29-31.92,44.4-8C694.44,447.29,680.22,451.26,664.37,449.69Z"/><path class="cls-10" d="M683.19,545.59a196.19,196.19,0,0,0-11.7-33.18c-2.41-5.27-4.94-10.38-7.54-15.33q-2-3.72-4.08-7.29t-4.08-7.18c-2.87-4.66-5.64-9.25-8.52-13.67s-5.76-8.72-8.72-12.81c-5.85-8.23-11.58-15.89-17.14-22.81-11-13.91-20.83-25.06-27.55-32.8-2.89-3.39-5.23-6.07-6.89-8.06l-.35.72s-1.6,3.6-7.44,3.73c1.68,1.83,3.71,4,6.07,6.56,7.38,7.89,18,19.08,29.62,33,5.89,6.91,12,14.55,18.11,22.75,3.11,4.07,6,8.41,9.15,12.75s6,9,8.94,13.6c1.46,2.33,2.9,4.71,4.28,7.13s2.89,4.79,4.27,7.25c2.73,4.95,5.35,10,7.81,15.1a191.29,191.29,0,0,1,12.25,32.54c12.86,46.43,7.92,96.17-11.17,140.17a232.52,232.52,0,0,1-28.75,49.19c-4.35,5.67-8.08,9.88-10.64,12.67s-4,4.2-4,4.2,1.4-1.42,4-4.12,6.34-6.92,10.77-12.56a236.43,236.43,0,0,0,29.59-49.31C689.46,643.4,695.27,593,683.19,545.59Z"/><path class="cls-10" d="M439.39,442.73a26.16,26.16,0,0,1-1.08-2.59,45,45,0,0,1-2.12-7.54,33.23,33.23,0,0,1-.09-12.23c.83-4.77,3.25-10.49,10.09-15.58,6.65-5.15,17.78-8.93,30-10.24,3.09-.27,6.23-.68,9.39-.74s6.24-.14,9.39-.15c6.36,0,12.87.31,19.34.86a295.52,295.52,0,0,1,38.85,6c6.36,1.34,12.67,2.89,18.74,4s11.86,1.6,14.93-.56c5.9-5.51,5.87-14.95,2.12-23.71s-11.33-17.66-21.22-24.76c-2.71-2.08-5.07-3.6-7.43-5.8a82.26,82.26,0,0,1-6.39-6c-2-2-3.53-4-5.36-5.89-1.46-2-3.1-3.88-4.47-5.78-5.45-7.6-9-14.85-9.8-21.35s1.78-12.07,6-16.31c2.65-1.94,4.54-4,7.81-5.2a38.69,38.69,0,0,1,8.64-3.36c3-.77,5.43-1.6,8-2s4.79-.63,6.58-.86c3.56-.44,5.46-.64,5.46-.64s-1.81.28-5.21.87c-1.7.29-3.76.65-6.22,1.1s-4.64,1.39-7.44,2.22A33.29,33.29,0,0,0,550,290c-3,1.26-4.56,3.33-6.88,5.25a19.49,19.49,0,0,0-4.39,15.82c1.06,6.25,4.8,13.24,10.3,20.55,1.39,1.83,3,3.66,4.48,5.54,1.8,1.83,3.36,3.74,5.29,5.59a96.94,96.94,0,0,0,12.88,11c10.63,7.63,18.62,16.95,22.76,26.62a32,32,0,0,1,2.79,14.43,19.22,19.22,0,0,1-1.58,6.79,16.93,16.93,0,0,1-1.59,3,14.86,14.86,0,0,1-2.7,2.86,16.67,16.67,0,0,1-9.36,2.18,59.32,59.32,0,0,1-10.12-1.25c-6.56-1.34-12.91-3-19.3-4.37a286.35,286.35,0,0,0-38.26-6.26c-6.37-.62-12.64-.88-18.88-1.07-3.14-.05-6.26-.07-9.35,0s-5.9.33-8.81.52c-11.52,1-21.82,4.22-28.23,8.81s-9.4,9.88-10.66,14.5a32.92,32.92,0,0,0-1,12.05A42.77,42.77,0,0,0,439.39,442.73Z"/><path class="cls-10" d="M483.87,503.8a66.21,66.21,0,0,1,.26-7.93c.26-2.67.71-5.37,1.18-8.08.63-2.7,1.19-5.43,2.11-8.15a81.91,81.91,0,0,1,3-8.14c1.45-2.65,2.56-5.4,4.46-7.95,1.06-1.55,1.57-2.33,2.62-3.89l3.18-3.7c1.94-2.55,4.79-4.69,7.28-7s5.84-4.11,8.76-6.15c3.26-1.78,6.73-3.39,10.13-5.05,4.48-1.54,6.74-2.29,11.26-3.73,4.56-1.24,6.84-1.82,11.42-2.94s6.71-1.8,11.2-2.9c3.65-1.05,7.41-1.94,10.94-3.06s7.11-2.19,10.49-3.4a51.5,51.5,0,0,0,9.27-4.3,15,15,0,0,0,3.38-2.82,5,5,0,0,0,.86-1.57c.25-.4-.05-1.28.16-.9,0-.87,0-1.32,0-2.2l7.95-6.86c2.69-2.25,5.27-4.6,8.07-6.76,6.7-5.22,10.06-7.82,16.8-13C642.13,373,648.9,367.9,662.5,357.76c11.34-8.45,22.83-16.9,36.52-23.17,6.94-3,14.44-5.54,23.27-6.08A44.25,44.25,0,0,1,736.57,330a41.69,41.69,0,0,1,15.36,8.16,39,39,0,0,0-15.08-7.3A40,40,0,0,0,723.3,330c-8.32.92-15.33,3.78-21.83,7.08-13.07,6.56-24,15.28-35,24-5.43,4.39-10.91,8.77-16.71,12.93-6.71,5.11-10.07,7.67-16.76,12.81s-10,7.73-16.65,12.91c-5.44,4.39-10.57,9-16,13.44,0-.88,0-1.33.05-2.2a4.38,4.38,0,0,1,.52,4,7.31,7.31,0,0,1-1.41,2.49,18,18,0,0,1-4.24,3.39,55.5,55.5,0,0,1-10.12,4.47c-3.56,1.21-7.18,2.34-10.9,3.32s-7.48,1.91-11.22,2.91c-4.58,1.05-6.87,1.6-11.42,2.76s-6.9,1.6-11.47,2.76c-4.37,1.28-6.54,2-10.87,3.34-3.31,1.49-6.69,2.93-9.91,4.54-2.88,1.87-6.09,3.55-8.7,5.64s-5.32,4.12-7.31,6.53l-3.26,3.49c-1.08,1.49-1.63,2.22-2.72,3.7-2,2.42-3.11,5.09-4.74,7.62a79.8,79.8,0,0,0-3.52,7.9c-1.1,2.65-1.82,5.33-2.64,8A85.49,85.49,0,0,0,483.87,503.8Z"/><path class="cls-10" d="M551.86,599.29c1.88-6.45,4.24-12.87,6.6-19.33,1.21-3.22,2.4-6.47,3.69-9.71s2.62-6.48,3.82-9.78c1.37-3.23,2.62-6.54,4-9.81s2.73-6.57,4.22-9.82,2.79-6.61,4.37-9.85,2.91-6.62,4.52-9.86,3.12-6.56,4.71-9.85c2.05-3.86,3.05-5.82,5-9.77,1.71-3.24,3.54-6.42,5.27-9.66s3.65-6.39,5.41-9.58,3.57-6.39,5.43-9.59,3.62-6.42,5.5-9.6,3.79-6.35,5.71-9.52a92.52,92.52,0,0,1,6.5-9.25l.07-.09.15-.11c5.62-4.1,11.46-7.89,17.26-11.77s11.71-7.61,17.72-11.2c7.25-4.29,10.88-6.42,18.15-10.64,6.05-3.44,11.91-7.17,18-10.69,12-7.11,24.17-14.2,37.92-18.81,6.94-2.17,14.32-3.78,22.51-3.21a36.46,36.46,0,0,1,12.83,3.28,35.35,35.35,0,0,1,12.54,10.19A32.62,32.62,0,0,0,771.23,382a33.07,33.07,0,0,0-12.3-2.52c-7.81-.13-14.78,1.88-21.37,4.39-13.23,5-25,12.4-36.66,19.84-11.55,7.64-23.92,14.38-35.78,21.55-6,3.57-11.72,7.42-17.58,11.14-6.89,4.62-10.35,6.93-17.23,11.56l.24-.19a89.14,89.14,0,0,0-6.38,8.65c-2,3.07-4,6.1-5.88,9.25s-3.84,6.24-5.69,9.39-3.79,6.25-5.64,9.43-3.87,6.22-5.58,9.42-3.69,6.26-5.5,9.4c-2,3.85-3.07,5.75-5.22,9.52-1.68,3.19-3.26,6.44-5,9.6s-3.11,6.48-4.77,9.65-3,6.48-4.62,9.66-2.9,6.48-4.45,9.67-2.86,6.44-4.35,9.63c-1.32,3.24-2.88,6.38-4.17,9.6s-2.72,6.39-4,9.57C556.71,586.59,554,592.9,551.86,599.29Z"/><path class="cls-10" d="M574.68,673.33c2.41-3.17,4.88-6.25,7.35-9.34s5-6.1,7.41-9.21,4.94-6.13,7.35-9.25,4.8-6.3,7.23-9.38c4.84-6.18,9.46-12.66,14.16-19s9-13.08,13.5-19.62c5.31-7.89,7.87-11.95,12.72-20.25,2-3.44,4-6.93,5.82-10.5s3.49-7.26,5.08-11a137.65,137.65,0,0,0,7.5-23.51,121.4,121.4,0,0,0,2-12.38,79.76,79.76,0,0,0,.41-12.51c0-.59-.05-.88-.08-1.47l.91-.62a84.94,84.94,0,0,1,16.5-8.46,76.48,76.48,0,0,1,17.73-4.66,63.7,63.7,0,0,1,9.28-.5A51.93,51.93,0,0,1,719,493a25.59,25.59,0,0,1,4.68,1.36,39.21,39.21,0,0,1,4.64,1.83,92.23,92.23,0,0,1,8.9,4.64,89.87,89.87,0,0,1,30.38,30.72,78.85,78.85,0,0,1,5.49,10.91,97.79,97.79,0,0,1,4.23,12.31A107.72,107.72,0,0,1,780,568.37c.32,2.91.45,4.38.68,7.33s.15,4.56.18,7.63c-.16-3-.25-4.44-.49-7.36s-.53-4.23-.94-7a103.71,103.71,0,0,0-3.09-13,90.63,90.63,0,0,0-4.5-11.55,88.76,88.76,0,0,0-5.6-10.21,85.5,85.5,0,0,0-29.86-28.65,88.08,88.08,0,0,0-8.62-4.5,36,36,0,0,0-4.37-1.73,23.14,23.14,0,0,0-4.4-1.28,47.37,47.37,0,0,0-8.89-1.2,60.42,60.42,0,0,0-8.82.47,73.63,73.63,0,0,0-17.06,4.48,95,95,0,0,0-15.91,8c.35-.83.52-1.25.86-2.1a83.27,83.27,0,0,1-.63,13.44,123.32,123.32,0,0,1-2.3,12.83A141.53,141.53,0,0,1,658.18,558c-1.69,3.8-3.42,7.57-5.39,11.19s-3.95,7.16-6.06,10.58c-5.05,8.2-7.71,12.2-13.19,20-4.64,6.39-9.18,13-14,19.18S610,631.49,605,637.51c-2.51,3-5,6-7.47,9s-5.08,5.91-7.58,8.93-5.13,5.88-7.64,8.9S577.19,670.27,574.68,673.33Z"/></g></g></g></svg>