<svg xmlns="http://www.w3.org/2000/svg" viewBox="0 0 1028.07 1152.6"><defs><style>.cls-1{isolation:isolate;}.cls-2{fill:#8a5d33;}.cls-3{fill:#e08d53;}.cls-4{fill:#cc7c3a;}.cls-5{mix-blend-mode:multiply;}.cls-6{fill:#cecece;}.cls-7{fill:#459b06;}.cls-8{fill:#2c5900;}.cls-9{fill:#5ab502;}.cls-10{fill:#377705;}</style></defs><title>Asset 9</title><g class="cls-1"><g id="Layer_2" data-name="Layer 2"><g id="Mobile_View" data-name="Mobile View"><path class="cls-2" d="M675.51,892.32c0,37-75.81,67-169.32,67s-169.31-30-169.31-67,75.8-67,169.31-67S675.51,855.33,675.51,892.32Z"/><path class="cls-3" d="M643.71,1152.6H369.61q-30.08-141.75-60.17-283.49H703.88Q673.84,1010.86,643.71,1152.6Z"/><path class="cls-4" d="M508.53,869.11H309.44q30.09,141.74,60.17,283.49H508.53Z"/><g class="cls-5"><path class="cls-6" d="M309.44,869.11l46.38,218.49c70.71-108.26,205.39-168.8,336.89-165.85q5.58-26.32,11.17-52.64Z"/></g><rect class="cls-3" x="301.79" y="864.18" width="408.81" height="51.68"/><rect class="cls-4" x="301.79" y="864.18" width="206.1" height="51.68"/><path class="cls-7" d="M557.3,951.71c-1-7.69-24.49-189.54,64.67-290.34,38.24-43.21,91.63-64.6,158.95-63.87l-.11,9c-64.48-.82-115.67,19.66-152.07,60.81C542.3,765,566,948.65,566.23,950.5Z"/><path class="cls-8" d="M764.86,974.49c-33-61.53-73.62-131.44-106.44-165.85l.31.14.44.2c.73.34,1.48.67,2.25,1l.43.19,2.43,1,.44.18,2.73,1.12.26.11c1,.41,2.08.82,3.17,1.23l0,0q5,1.92,10.85,3.91h0l3.85,1.28.7.22,3.36,1.08,1.1.34,3.16,1,1.38.41,3.06.9,1.63.47,3.07.87,1.74.48,3.13.86,1.91.51,3.23.84c.65.18,1.31.35,2,.51l3.41.87,2,.49c1.18.3,2.38.59,3.59.88l2.06.49c1.27.31,2.58.61,3.89.91l2,.46c1.47.34,3,.68,4.5,1l1.6.36,6.37,1.38.23.05,6.35,1.32,2.14.43,4.64.93,2.86.56c1.39.27,2.78.54,4.21.8,1,.21,2.11.4,3.18.6l4.1.77,3.46.62,4.14.74,3.57.62c1.43.25,2.86.5,4.32.74l3.71.63,4.4.73,3.85.62,4.61.73,3.94.62,4.76.73,4,.61,5.05.74,4,.59,5.49.78,3.88.54,6.37.86,3.28.45,10,1.31-.31-.16h0c-67-31.16-146.33-64.59-192.34-69.82,1.09-.36,2.25-.77,3.41-1.18.57-.2,1.11-.38,1.7-.6,1.44-.53,3-1.12,4.51-1.72l1.21-.47c4-1.61,8.35-3.49,13.06-5.69l2-.93c1.73-.82,3.49-1.66,5.33-2.57.89-.44,1.84-.93,2.76-1.4,1.67-.84,3.33-1.68,5.08-2.59l3.27-1.75c1.7-.9,3.39-1.82,5.16-2.78l3.66-2c1.76-1,3.54-2,5.37-3,1.33-.76,2.68-1.56,4-2.35,1.84-1.07,3.7-2.17,5.6-3.3,1.45-.86,2.92-1.75,4.4-2.65,1.93-1.18,3.91-2.39,5.91-3.64l4.7-2.93c2.06-1.3,4.17-2.64,6.3-4,1.64-1.06,3.29-2.11,5-3.21l6.74-4.44c1.72-1.14,3.42-2.26,5.18-3.44,2.4-1.61,4.87-3.3,7.35-5,1.76-1.2,3.49-2.37,5.29-3.61,2.64-1.83,5.39-3.75,8.12-5.67,1.75-1.23,3.45-2.41,5.24-3.68,3.11-2.2,6.33-4.51,9.54-6.83l4.55-3.26c4.84-3.51,9.78-7.14,14.87-10.92-62,19.62-132.84,45-169.24,69.93.5-.93,1-1.88,1.52-2.86l.14-.27c.8-1.53,1.61-3.15,2.43-4.83l.32-.65c.79-1.65,1.6-3.38,2.41-5.17.13-.3.27-.59.4-.89.81-1.78,1.62-3.65,2.43-5.59l.45-1c.82-2,1.65-4,2.48-6.11.15-.37.3-.75.44-1.12.85-2.17,1.71-4.41,2.57-6.75.13-.34.25-.69.38-1q1.34-3.65,2.69-7.54l.25-.76c1-2.75,1.9-5.57,2.86-8.52l0-.09c1-2.95,1.92-6,2.89-9.21.09-.3.18-.58.28-.88.92-3.05,1.86-6.22,2.79-9.47l.41-1.39q1.37-4.82,2.76-9.94c.15-.55.3-1.1.45-1.67q1.38-5.15,2.78-10.59c.15-.58.3-1.16.44-1.74q1.42-5.56,2.83-11.46c.13-.52.26-1.07.38-1.6,1-4.06,1.95-8.22,2.93-12.52.08-.38.17-.78.26-1.16,1-4.52,2-9.16,3.06-13.95l-.15.22h0c-43,62.59-90.7,141.49-73.07,167.61-18.11-25.79-109-10.55-182.87,6.29,5.32.9,10.46,1.73,15.47,2.51l5.16.78c3.17.48,6.35,1,9.39,1.39,2,.29,3.89.53,5.84.8,2.65.36,5.32.73,7.88,1,2,.26,3.84.48,5.75.71,2.41.29,4.82.58,7.14.84,1.89.21,3.7.41,5.54.59,2.2.24,4.39.47,6.51.67l5.28.48q3.06.27,6,.5l5,.37c1.88.13,3.73.25,5.54.35,1.58.1,3.13.19,4.65.26,1.75.09,3.46.16,5.15.23l4.3.15c1.64.05,3.23.08,4.8.11,1.33,0,2.67,0,3.95,0,1.54,0,3,0,4.49,0,1.2,0,2.42,0,3.58,0,1.47,0,2.87-.07,4.27-.12l3.15-.1c1.46-.06,2.83-.15,4.22-.23.85-.06,1.76-.09,2.58-.16,1.74-.12,3.39-.27,5-.42l1.21-.11c1.88-.19,3.67-.41,5.39-.64-35.87,25.46-84.14,83.47-123.92,135.15h0l-.19.25c4.8-3.17,9.44-6.26,14-9.31l1.15-.77c4.3-2.89,8.45-5.73,12.5-8.52l1.57-1.08c3.94-2.72,7.74-5.39,11.45-8l1.61-1.14q5.48-3.88,10.6-7.59L518,900c3.39-2.48,6.7-4.91,9.88-7.28l1.29-1c3.23-2.41,6.36-4.78,9.36-7.1l.74-.56q9.43-7.27,17.5-13.88l.6-.49c2.56-2.1,5-4.14,7.36-6.14l.92-.78c2.27-1.92,4.43-3.8,6.52-5.64l1-.87c2-1.8,4-3.57,5.88-5.28l.91-.84c1.85-1.7,3.64-3.37,5.33-5l.78-.75q2.55-2.46,4.88-4.78l.52-.52c1.6-1.61,3.13-3.18,4.57-4.7l.12-.12c1.42-1.51,2.76-3,4-4.38l.38-.42c1.23-1.36,2.37-2.68,3.46-4l.51-.59c1-1.23,2-2.41,2.94-3.57.17-.23.35-.44.52-.66a.39.39,0,0,1,.08-.1c-10.84,45-6.6,131-.26,204.59v0c0,.11,0,.23,0,.34.74-3.29,1.47-6.55,2.18-9.76.28-1.27.54-2.51.82-3.75l1.25-5.76c.3-1.39.58-2.73.88-4.09.36-1.75.74-3.49,1.09-5.2.3-1.4.58-2.78.87-4.16.33-1.6.67-3.21,1-4.79s.57-2.83.85-4.23.6-3,.9-4.47.56-2.81.82-4.2.56-2.86.83-4.26.53-2.75.79-4.11.52-2.76.77-4.13.49-2.63.73-3.92.48-2.7.73-4,.46-2.58.69-3.85.44-2.53.66-3.78.44-2.56.65-3.82.42-2.49.63-3.72.4-2.4.59-3.58.4-2.45.59-3.68.37-2.31.54-3.45.37-2.32.54-3.48.35-2.27.51-3.38c.19-1.28.37-2.52.55-3.76.22-1.57.45-3.12.66-4.65s.41-3,.61-4.43c.12-.91.23-1.79.35-2.68.15-1.19.31-2.38.46-3.54.11-.92.21-1.8.32-2.69.14-1.09.27-2.19.4-3.26s.2-1.82.31-2.73.23-2,.33-3,.19-1.74.28-2.61.21-2,.3-3,.17-1.66.25-2.49.18-1.89.26-2.82.15-1.62.22-2.42.15-1.86.22-2.77q.1-1.11.18-2.22c.07-.92.14-1.82.2-2.72,0-.72.1-1.45.15-2.15.06-.88.11-1.75.17-2.61,0-.67.08-1.34.11-2,.05-.91.1-1.8.14-2.69l.09-1.73c0-.93.07-1.84.11-2.74l.06-1.54c0-1,.06-1.93.08-2.88l0-1.19q0-1.92.06-3.75v-.14c0-1.3,0-2.58,0-3.82v-.34c0-1.08,0-2.15,0-3.2,0-.31,0-.61,0-.93,0-.84,0-1.67-.06-2.49l0-1c0-.76,0-1.52-.09-2.25,0-.35,0-.7,0-1,0-.69-.07-1.37-.11-2,0-.34,0-.68-.07-1,0-.65-.08-1.29-.13-1.92,0-.32,0-.64-.08-1-.05-.61-.1-1.22-.16-1.8,0-.31,0-.61-.09-.91-.05-.59-.12-1.17-.17-1.74l-.06-.51.95,1.75.45.81c.77,1.39,1.59,2.81,2.47,4.3l.46.76c.92,1.55,1.89,3.14,2.94,4.81.11.17.23.35.33.52,1.1,1.73,2.25,3.51,3.48,5.35l.13.2c1.25,1.87,2.58,3.82,4,5.81l.46.67c1.36,1.93,2.8,3.93,4.29,6l.7.95c1.49,2,3.06,4.12,4.69,6.27l.86,1.12c1.65,2.17,3.38,4.39,5.19,6.68.3.38.62.77.92,1.16q2.79,3.51,5.82,7.21l.85,1c2.11,2.57,4.3,5.19,6.59,7.9l.57.67c2.42,2.84,4.93,5.76,7.56,8.77,0,0,0,0,0,0,2.61,3,5.35,6.08,8.19,9.24l.74.82q4.1,4.56,8.51,9.34l1.17,1.27q4.34,4.69,9,9.63c.48.51,1,1,1.45,1.52q4.65,4.92,9.62,10.07c.53.54,1.08,1.09,1.61,1.65q5.06,5.21,10.43,10.65l1.48,1.5q5.58,5.63,11.49,11.48l1.09,1.08Q758.22,968,764.86,974.49ZM622,789.3h-.07l.21-.28c.15-.18.3-.36.42-.53s.19-.28.28-.42l.21-.31.21-.39c0-.07.08-.15.11-.22s.11-.22.15-.32a.47.47,0,0,1,0-.1h0a3.6,3.6,0,0,0,.16-.5c0-.06-.09-.1-.12-.16a4.11,4.11,0,0,0,.47,0h0l.45,0h.08l.59-.07.11,0,.73-.15.11,0a8.26,8.26,0,0,0,.83-.24l.12,0c.3-.1.62-.23,1-.37l.19-.08.16-.07.33.24h0l.27.17.09.06a5.38,5.38,0,0,0,.55.29l.09,0a12,12,0,0,0,1.47.57c-.19.13-.42.23-.61.37a3.26,3.26,0,0,0,.1.55h0a8.37,8.37,0,0,0,.35,1,21.17,21.17,0,0,0-6.39-1.15,3,3,0,0,0-.25.5h0a.14.14,0,0,0,0,.06,4,4,0,0,0-.15.39s0,.09,0,.14a5,5,0,0,0-.16.57,1,1,0,0,1,0,.18c-.05.24-.1.49-.14.77,0,.05,0,.12,0,.18,0,.28-.07.58-.09.91,0,.06,0,.13,0,.2,0,.35,0,.73,0,1.13v.36a3.53,3.53,0,0,0-.74-.46c-.19.13-.36.31-.55.44,0-.14,0-.28,0-.41v-.24c0-.25,0-.48,0-.68s0-.16,0-.24,0-.35-.07-.51l0-.21a2.28,2.28,0,0,0-.08-.33s0-.06,0-.09h0A2.61,2.61,0,0,0,622,789.3Z"/><path class="cls-7" d="M475.26,866l-9-.62c.42-6.14,40.88-615.82-76.6-740C376.05,111,360.51,103.67,344,104l-.13-9c19.45-.33,37,7.87,52.37,24.15C516.39,246.21,477,840.73,475.26,866Z"/><path class="cls-7" d="M535.71,910c-1.22-19.74-28.31-484.9,104.49-622.36,25-25.9,54.44-38.6,87.54-37.68l-.24,9c-30.49-.81-57.63,10.93-80.82,34.93-130.06,134.62-102.27,610.76-102,615.55Z"/><path class="cls-8" d="M565.53,863c-25-46.63-55.8-99.62-80.67-125.7l.24.11.33.15c.55.25,1.12.51,1.71.76a3.31,3.31,0,0,0,.33.15l1.83.78.34.14c.67.29,1.36.57,2.06.85l.2.09,2.4.93h0c2.52,1,5.26,2,8.22,3l0,0,2.91,1,.53.16c.83.28,1.68.55,2.54.82l.84.26,2.4.73,1.05.31,2.31.69,1.24.35,2.32.66,1.32.37,2.38.65,1.44.38,2.45.65,1.49.38,2.59.65,1.53.39,2.73.66,1.55.37,3,.69,1.5.35,3.41.77c.41.08.81.17,1.22.27,1.58.34,3.19.7,4.83,1l.17,0,4.82,1,1.61.33,3.52.7,2.17.42,3.19.61,2.41.46,3.11.57,2.62.48,3.14.56,2.71.47,3.26.56,2.82.47,3.34.56,2.91.47,3.49.56,3,.46,3.61.56,3.07.46,3.82.56,3.06.44,4.16.59,3,.42,4.82.65,2.49.34,7.57,1a1.92,1.92,0,0,1-.25-.12h0c-50.77-23.61-110.91-49-145.78-52.91l2.59-.9,1.28-.45c1.1-.4,2.25-.85,3.42-1.31l.92-.36q4.55-1.82,9.9-4.31l1.49-.7c1.31-.62,2.64-1.26,4-2l2.09-1.06c1.27-.64,2.53-1.28,3.86-2L520,703.2c1.28-.68,2.57-1.38,3.91-2.11l2.77-1.55c1.33-.74,2.68-1.5,4.07-2.3,1-.57,2-1.17,3.07-1.78,1.39-.81,2.8-1.64,4.24-2.51,1.09-.64,2.21-1.32,3.33-2,1.47-.9,3-1.81,4.48-2.76,1.18-.72,2.36-1.46,3.56-2.22,1.56-1,3.16-2,4.78-3L558,680.5c1.67-1.09,3.38-2.22,5.11-3.37,1.3-.86,2.59-1.71,3.93-2.61,1.81-1.21,3.69-2.49,5.56-3.77l4-2.74,6.16-4.3c1.32-.93,2.61-1.82,4-2.78,2.36-1.67,4.8-3.42,7.24-5.18,1.15-.84,2.27-1.62,3.45-2.48,3.66-2.66,7.4-5.41,11.27-8.27-47,14.87-100.69,34.11-128.28,53,.38-.7.76-1.42,1.15-2.17l.11-.2c.6-1.16,1.22-2.39,1.84-3.67l.24-.49c.61-1.24,1.21-2.56,1.83-3.92l.31-.66c.6-1.36,1.22-2.77,1.84-4.24.11-.27.22-.53.34-.8q.93-2.24,1.88-4.63l.33-.85c.65-1.64,1.29-3.35,1.95-5.12l.29-.78q1-2.76,2-5.71c.07-.19.13-.39.2-.58.71-2.08,1.44-4.23,2.16-6.46,0,0,0,0,0-.06.73-2.24,1.46-4.58,2.2-7,.06-.23.13-.45.2-.67.71-2.32,1.41-4.72,2.12-7.18.11-.35.21-.7.31-1.05q1-3.66,2.1-7.53c.11-.43.22-.84.34-1.27.7-2.6,1.4-5.27,2.1-8,.12-.44.23-.88.34-1.32.71-2.81,1.43-5.7,2.14-8.68.1-.4.2-.81.29-1.22.74-3.08,1.48-6.23,2.22-9.49.06-.29.13-.58.19-.88.78-3.43,1.55-6.94,2.33-10.57l-.12.17h0c-32.58,47.44-68.75,107.24-55.39,127-13.72-19.54-82.58-8-138.59,4.77,4,.68,7.92,1.31,11.72,1.9l3.92.59c2.4.37,4.81.73,7.11,1.06l4.42.6c2,.28,4,.55,6,.8l4.36.54,5.41.64,4.19.45,4.95.5,4,.36,4.54.38,3.77.28,4.21.27,3.52.2,3.9.17,3.26.12c1.24,0,2.45.06,3.64.07l3,0c1.16,0,2.28,0,3.4,0,.91,0,1.83,0,2.71,0,1.12,0,2.17-.05,3.23-.09l2.4-.07c1.1,0,2.14-.12,3.19-.18l2-.11c1.32-.1,2.57-.21,3.79-.33l.92-.08q2.15-.23,4.08-.48c-27.18,19.29-63.76,63.26-93.92,102.43h0l-.14.18c3.64-2.4,7.15-4.74,10.58-7l.87-.58c3.26-2.2,6.41-4.35,9.48-6.47l1.19-.81c3-2.06,5.86-4.08,8.67-6.06l1.23-.87q4.14-2.94,8-5.76c.39-.27.77-.55,1.15-.83,2.57-1.88,5.08-3.72,7.49-5.52l1-.74c2.44-1.82,4.81-3.62,7.09-5.37l.56-.43Q401.68,789,407.79,784l.46-.37c1.93-1.58,3.78-3.13,5.57-4.64l.7-.59c1.72-1.46,3.36-2.89,4.94-4.28l.75-.66c1.55-1.37,3-2.71,4.46-4l.68-.63q2.11-1.93,4-3.78l.59-.57c1.28-1.24,2.52-2.45,3.7-3.63l.39-.39c1.21-1.22,2.37-2.41,3.46-3.56l.09-.09q1.62-1.71,3.07-3.32c.09-.11.2-.21.29-.32.92-1,1.79-2,2.62-3l.39-.44c.78-.94,1.51-1.84,2.21-2.71l.4-.51.07-.07c-8.22,34.12-5,99.29-.2,155.06v0a2.48,2.48,0,0,0,0,.27l1.65-7.4c.21-1,.41-1.9.62-2.85.32-1.47.64-2.93,1-4.37.23-1,.44-2.06.66-3.1.28-1.32.57-2.63.84-3.94.22-1.06.44-2.1.65-3.15.26-1.21.5-2.43.75-3.63s.44-2.14.65-3.2.46-2.28.68-3.4.42-2.12.62-3.18.43-2.16.63-3.23l.6-3.11c.19-1.05.39-2.09.58-3.13s.37-2,.55-3,.37-2.05.56-3.06.35-2,.52-2.92.33-1.92.5-2.87.34-1.94.5-2.89.31-1.89.47-2.82.3-1.82.45-2.71.3-1.86.44-2.79.29-1.76.42-2.61.27-1.77.41-2.65.26-1.72.39-2.56.27-1.9.41-2.84c.17-1.19.34-2.37.5-3.53s.31-2.26.46-3.36c.09-.69.18-1.36.26-2,.12-.9.24-1.81.35-2.69.09-.69.16-1.35.25-2s.2-1.65.3-2.46.15-1.38.24-2.07.17-1.54.25-2.29.14-1.33.21-2,.15-1.51.23-2.25.13-1.26.18-1.89.14-1.43.2-2.13.11-1.23.16-1.83.12-1.42.18-2.11.09-1.12.13-1.68.1-1.38.16-2.06.07-1.09.11-1.63.08-1.33.12-2,.07-1,.09-1.51c0-.69.08-1.37.11-2l.06-1.32c0-.7.06-1.38.09-2.07,0-.39,0-.79,0-1.17,0-.73.05-1.46.06-2.18l0-.9c0-1,0-1.92,0-2.85v-.11c0-1,0-1.94,0-2.88,0-.09,0-.18,0-.26,0-.82,0-1.64,0-2.43,0-.23,0-.46,0-.7,0-.64,0-1.28,0-1.89l0-.73c0-.58,0-1.15-.06-1.7,0-.27,0-.53,0-.8,0-.52-.06-1-.09-1.54,0-.26,0-.51,0-.77,0-.49-.06-1-.1-1.45l-.06-.73c0-.47-.07-.93-.12-1.38l-.06-.68c-.05-.45-.1-.89-.14-1.32,0-.12,0-.26,0-.39.23.44.47.88.72,1.33l.34.61c.59,1,1.21,2.14,1.87,3.27l.34.57c.71,1.18,1.44,2.38,2.24,3.65l.25.39q1.25,2,2.64,4.06l.09.15q1.43,2.13,3,4.4c.11.17.22.34.35.51,1,1.46,2.11,3,3.24,4.54l.54.72c1.12,1.54,2.31,3.12,3.55,4.75l.65.85q1.88,2.46,3.93,5.06l.7.88c1.41,1.78,2.88,3.59,4.41,5.46l.64.78c1.61,2,3.26,3.94,5,6,.14.16.29.33.43.51,1.84,2.15,3.74,4.36,5.73,6.64l0,0c2,2.27,4.06,4.61,6.21,7l.56.63c2.07,2.3,4.22,4.67,6.45,7.07.3.33.58.65.88,1q3.3,3.57,6.83,7.3l1.09,1.16c2.36,2.47,4.79,5,7.3,7.61l1.22,1.26q3.82,3.94,7.91,8.07l1.12,1.14c2.82,2.84,5.71,5.73,8.71,8.7l.83.82C558.93,856.57,562.17,859.74,565.53,863ZM457.22,722.66h-.05l.16-.2a4.92,4.92,0,0,0,.31-.41,3.05,3.05,0,0,0,.22-.32l.15-.23a2.19,2.19,0,0,0,.16-.29l.09-.17c0-.1.08-.17.11-.25l0-.07h0a3,3,0,0,0,.12-.38s-.06-.08-.09-.13l.36,0h0l.34,0h.06l.44-.06h.1l.55-.12.08,0c.2,0,.4-.11.63-.19l.09,0c.23-.08.47-.17.73-.28a.59.59,0,0,0,.14-.06l.13,0a1.61,1.61,0,0,0,.24.18h0l.21.13.07,0,.41.23.07,0a9.51,9.51,0,0,0,1.12.43c-.15.11-.33.18-.47.28a2.74,2.74,0,0,0,.08.43h0a6.71,6.71,0,0,0,.27.77,16.3,16.3,0,0,0-4.84-.87,2,2,0,0,0-.2.38h0v0c0,.09-.07.19-.11.3l0,.12c0,.12-.07.26-.11.42a.89.89,0,0,0,0,.14c0,.17-.08.37-.11.58,0,0,0,.09,0,.14,0,.21,0,.43-.06.69,0,0,0,.09,0,.15,0,.27,0,.55,0,.86v.26a3.15,3.15,0,0,0-.55-.34c-.15.1-.28.23-.42.33v-.49a4.27,4.27,0,0,0,0-.52,1.1,1.1,0,0,0,0-.18c0-.14,0-.26,0-.38l0-.16a1.67,1.67,0,0,0-.06-.26.15.15,0,0,0,0-.06h0A3.29,3.29,0,0,0,457.22,722.66Z"/><path class="cls-8" d="M642.48,685.68c-25-46.63-55.8-99.62-80.68-125.7l.24.11.33.15,1.71.76.33.15,1.84.78.33.14,2.07.85.2.08,2.4.94h0c2.53,1,5.26,2,8.22,3h0c1,.33,1.92.65,2.91,1l.54.17,2.54.82.84.25,2.39.74,1.06.31c.75.23,1.52.46,2.31.68l1.24.36,2.32.66,1.31.37,2.38.64,1.45.39,2.44.64,1.5.39,2.58.65,1.54.38,2.72.66,1.56.38,3,.69,1.49.34,3.42.77,1.22.27,4.82,1,.18,0c1.57.34,3.17.67,4.81,1l1.62.33,3.52.7,2.17.43,3.18.61,2.42.45,3.11.58,2.62.48,3.14.55,2.7.47,3.27.57,2.81.47,3.34.55,2.92.48,3.49.55,3,.47,3.61.55,3.06.46,3.83.57,3.06.45,4.16.58,2.94.42,4.83.65,2.48.34,7.57,1c-.08-.05-.16-.08-.24-.12h0c-50.77-23.61-110.91-49-145.78-52.92.82-.27,1.71-.58,2.59-.89l1.28-.45c1.1-.41,2.25-.85,3.42-1.32l.92-.35q4.54-1.83,9.9-4.31l1.48-.71c1.32-.62,2.65-1.25,4-1.94l2.09-1.06c1.26-.64,2.53-1.28,3.85-2,.81-.42,1.65-.88,2.48-1.33,1.29-.68,2.57-1.37,3.91-2.1l2.78-1.55,4.07-2.3,3.06-1.78c1.39-.81,2.8-1.64,4.24-2.51,1.1-.65,2.21-1.32,3.34-2l4.48-2.75c1.17-.73,2.36-1.46,3.56-2.22l4.77-3c1.25-.8,2.5-1.6,3.78-2.44,1.66-1.08,3.38-2.22,5.11-3.36,1.3-.86,2.59-1.71,3.92-2.61,1.82-1.22,3.69-2.5,5.57-3.78,1.33-.91,2.65-1.79,4-2.74,2-1.38,4.08-2.84,6.16-4.29,1.32-.93,2.62-1.83,4-2.79,2.35-1.66,4.79-3.42,7.23-5.18l3.45-2.47c3.67-2.66,7.41-5.41,11.27-8.27-47,14.86-100.69,34.11-128.28,53,.38-.7.77-1.42,1.16-2.16,0-.07.07-.14.11-.2.6-1.17,1.22-2.4,1.84-3.67.08-.16.16-.32.23-.49.61-1.25,1.22-2.56,1.84-3.92l.3-.67c.61-1.36,1.22-2.77,1.85-4.24.1-.26.22-.53.33-.79q.93-2.24,1.88-4.63c.12-.29.23-.57.34-.86q1-2.46,1.95-5.11c.09-.26.18-.52.28-.78.67-1.84,1.35-3.74,2-5.72.06-.19.13-.38.19-.58q1.08-3.1,2.17-6.46l0-.05c.73-2.25,1.45-4.58,2.19-7l.21-.67c.7-2.31,1.41-4.71,2.12-7.18.1-.35.2-.69.31-1.05q1-3.65,2.09-7.53c.12-.42.23-.84.34-1.26.7-2.6,1.41-5.28,2.11-8,.11-.43.23-.87.33-1.31.72-2.82,1.43-5.71,2.15-8.68.09-.41.19-.82.29-1.22.73-3.08,1.47-6.23,2.21-9.49.07-.29.13-.59.2-.88.78-3.43,1.55-6.94,2.33-10.57a1,1,0,0,0-.12.17h0c-32.59,47.44-68.75,107.24-55.39,127-13.73-19.54-82.58-8-138.59,4.76q6,1,11.72,1.91l3.91.59c2.4.36,4.81.73,7.12,1.06l4.42.6,6,.8c1.48.19,2.91.36,4.36.53,1.81.23,3.64.44,5.4.64l4.2.45,4.94.51,4,.36,4.55.38,3.77.27c1.43.1,2.83.2,4.2.28,1.2.07,2.37.14,3.52.19,1.33.07,2.63.12,3.91.17l3.25.12,3.65.08,3,0h3.4l2.72,0c1.11,0,2.17-.06,3.23-.09l2.39-.08c1.11-.05,2.15-.11,3.19-.18l2-.11c1.31-.1,2.56-.21,3.78-.33l.93-.08q2.13-.21,4.08-.48c-27.19,19.29-63.77,63.27-93.92,102.43h0l-.15.19c3.64-2.4,7.16-4.75,10.59-7,.28-.2.58-.39.87-.59,3.26-2.19,6.41-4.34,9.48-6.46l1.18-.82c3-2.06,5.87-4.08,8.68-6.06l1.22-.87q4.15-2.92,8-5.75l1.15-.84c2.58-1.87,5.09-3.71,7.49-5.51l1-.74q3.68-2.75,7.1-5.38l.56-.43q7.15-5.5,13.26-10.52l.46-.37c1.94-1.59,3.78-3.13,5.57-4.65l.7-.59c1.72-1.46,3.36-2.88,5-4.28l.75-.66c1.55-1.36,3-2.7,4.45-4l.69-.63q2.11-2,4-3.79l.59-.56c1.29-1.24,2.53-2.46,3.7-3.63l.39-.39q1.83-1.83,3.47-3.56s0-.07.09-.09c1.08-1.15,2.09-2.25,3.06-3.32.09-.11.2-.22.29-.32.93-1,1.8-2,2.63-3l.38-.45c.79-.93,1.52-1.83,2.22-2.71.14-.16.27-.33.4-.49l.06-.09c-8.21,34.12-5,99.29-.19,155.07v0a2.28,2.28,0,0,0,0,.26c.57-2.5,1.12-5,1.65-7.4.22-1,.42-1.9.63-2.85.31-1.46.64-2.93.95-4.36.22-1,.44-2.07.66-3.1.28-1.32.56-2.64.83-3.94.22-1.06.45-2.11.66-3.16l.75-3.63c.22-1.08.43-2.14.64-3.2s.46-2.27.68-3.38.42-2.13.63-3.19l.63-3.23c.2-1.05.4-2.08.59-3.11s.4-2.1.59-3.13.37-2,.55-3,.37-2.06.55-3.07.35-2,.52-2.92.34-1.91.51-2.86.33-1.94.49-2.9.32-1.88.47-2.81.31-1.83.46-2.72.3-1.86.44-2.78.28-1.76.42-2.62.27-1.76.4-2.64.27-1.72.39-2.56.28-1.91.41-2.85c.18-1.19.35-2.37.51-3.53s.31-2.26.46-3.36c.09-.68.17-1.35.26-2,.12-.9.24-1.81.35-2.69.09-.69.16-1.36.24-2s.2-1.65.3-2.46.16-1.39.24-2.07.18-1.54.26-2.3.14-1.32.2-2,.16-1.5.23-2.24.13-1.26.19-1.89.14-1.44.2-2.14.11-1.22.16-1.83.12-1.41.18-2.1.09-1.13.13-1.68q.07-1.05.15-2.07l.12-1.62c0-.67.07-1.33.12-2s.06-1,.09-1.52c0-.69.07-1.36.1-2,0-.44,0-.88.07-1.32,0-.7.06-1.39.08-2.07,0-.39,0-.79,0-1.17,0-.74,0-1.47.06-2.18,0-.3,0-.61,0-.9,0-1,0-1.93,0-2.85v-.11c0-1,0-1.95,0-2.89v-.26c0-.82,0-1.63,0-2.42,0-.24,0-.47,0-.71,0-.63,0-1.27,0-1.89,0-.24,0-.48,0-.73,0-.57,0-1.14-.07-1.7,0-.27,0-.53,0-.8,0-.51,0-1-.08-1.54,0-.25,0-.51-.05-.76,0-.49-.07-1-.1-1.45l-.06-.74-.12-1.37c0-.23,0-.46-.07-.68,0-.45-.09-.89-.13-1.32,0-.13,0-.26-.05-.39.23.44.48.88.72,1.33.12.2.23.41.34.61.59,1.05,1.21,2.14,1.87,3.26.12.19.24.38.35.57.7,1.18,1.44,2.39,2.23,3.65l.26.4c.83,1.31,1.7,2.66,2.63,4.06a1.21,1.21,0,0,0,.1.14c1,1.42,2,2.9,3,4.41l.35.51c1,1.46,2.12,3,3.25,4.53l.53.72c1.13,1.54,2.32,3.13,3.55,4.76l.66.85c1.25,1.64,2.56,3.32,3.93,5.06.23.29.47.58.7.88q2.11,2.65,4.41,5.46l.64.77c1.6,1.95,3.26,3.94,5,6l.43.5c1.84,2.16,3.74,4.37,5.73,6.65l0,0c2,2.27,4.06,4.6,6.21,7l.55.63c2.08,2.29,4.23,4.66,6.46,7.07l.88,1q3.3,3.57,6.83,7.31c.36.38.73.76,1.09,1.15q3.52,3.72,7.3,7.62c.4.42.81.84,1.22,1.25q3.83,4,7.9,8.08c.37.37.75.76,1.13,1.13,2.82,2.85,5.7,5.74,8.7,8.71l.83.81C635.87,679.23,639.11,682.41,642.48,685.68ZM534.17,545.32h-.06l.16-.21a5.15,5.15,0,0,0,.32-.41l.22-.31.15-.24.16-.29a1.29,1.29,0,0,1,.09-.16c0-.1.08-.17.11-.25a.19.19,0,0,0,0-.08h0a4,4,0,0,0,.13-.38,1.27,1.27,0,0,1-.1-.12l.36,0h0l.34,0h.06l.44-.06h.09l.55-.12.09,0c.19-.06.4-.11.63-.19l.08,0c.23-.08.48-.17.73-.28l.15-.06.12-.05a2.43,2.43,0,0,0,.24.18h0l.21.13.06,0,.42.23.07,0a8.3,8.3,0,0,0,1.12.43c-.15.1-.33.18-.47.28a2.55,2.55,0,0,0,.08.42h0a4.83,4.83,0,0,0,.27.77,16.33,16.33,0,0,0-4.85-.86,2.68,2.68,0,0,0-.19.37h0l0,0c0,.09-.07.18-.1.3s0,.07,0,.11-.08.27-.12.43l0,.14c0,.17-.07.36-.11.57,0,.05,0,.1,0,.14,0,.22,0,.44-.07.69a.92.92,0,0,1,0,.16c0,.26,0,.55,0,.85v.27a2.78,2.78,0,0,0-.56-.35c-.14.1-.27.24-.41.34v-.5c0-.18,0-.35,0-.51s0-.12,0-.18,0-.26-.05-.38a.76.76,0,0,0,0-.16,1.72,1.72,0,0,0,0-.26s0,0,0-.06h0A2.64,2.64,0,0,0,534.17,545.32Z"/><path class="cls-8" d="M318.57,941.31c22.82-47.73,47.32-103.92,53.63-139.4a2,2,0,0,1,.05.26c0,.11.05.23.08.35.12.6.26,1.21.4,1.83,0,.12,0,.24.07.35.14.63.3,1.29.46,1.95,0,.12.05.23.08.35.17.71.35,1.43.54,2.17a1.6,1.6,0,0,1,.05.21q.31,1.22.66,2.49v0c.71,2.61,1.54,5.4,2.48,8.39a0,0,0,0,0,0,0c.3,1,.62,1.93.94,2.92l.18.53c.27.84.55,1.67.85,2.53.09.28.19.56.28.83.27.78.54,1.57.83,2.37.12.34.24.68.37,1,.27.74.54,1.51.81,2.27.16.4.3.81.45,1.21l.84,2.26c.17.43.32.85.49,1.28l.88,2.3.54,1.39c.31.78.62,1.56.93,2.36.2.47.38.94.57,1.43l1,2.47c.2.49.4,1,.61,1.46.34.86.71,1.73,1.07,2.59.21.49.41,1,.62,1.48.38.91.79,1.85,1.19,2.79l.61,1.41c.45,1,.92,2.13,1.39,3.21.18.38.34.75.51,1.14q1,2.22,2,4.51l.08.16q1,2.21,2,4.48l.69,1.49c.5,1.08,1,2.16,1.52,3.26.31.66.62,1.33.94,2,.45,1,.91,1.95,1.39,2.94.34.73.7,1.47,1.06,2.21.46.95.91,1.89,1.38,2.85.38.79.77,1.6,1.17,2.4s.92,1.89,1.4,2.85.81,1.64,1.22,2.47c.48,1,1,2,1.48,3l1.28,2.54,1.53,3c.44.87.89,1.76,1.35,2.63.52,1,1.07,2.09,1.61,3.14l1.39,2.69,1.69,3.24c.48.91.95,1.82,1.44,2.74.59,1.13,1.2,2.27,1.81,3.42L423,922.3c.66,1.22,1.32,2.47,2,3.71l1.41,2.61c.76,1.42,1.54,2.85,2.32,4.28l1.2,2.21c1.21,2.2,2.43,4.42,3.69,6.69,0-.1-.05-.18-.06-.27h0c-11-54.9-26.14-118.39-43.57-148.84.71.5,1.48,1,2.25,1.55l1.12.77c1,.65,2,1.31,3.08,2l.83.53c2.78,1.72,5.88,3.53,9.33,5.43l1.45.77c1.28.7,2.58,1.4,4,2.11.67.35,1.39.71,2.09,1.06,1.26.64,2.53,1.28,3.87,1.94l2.53,1.22,4,1.9,2.89,1.33,4.26,1.91,3.25,1.42c1.48.65,3,1.29,4.53,1.94l3.59,1.5,4.87,2,3.9,1.54,5.28,2.06c1.38.53,2.76,1.07,4.19,1.6,1.86.71,3.79,1.42,5.73,2.13,1.47.55,2.93,1.08,4.43,1.62,2.06.75,4.2,1.5,6.34,2.26l4.58,1.61c2.31.8,4.71,1.61,7.11,2.43l4.6,1.56,8.45,2.76c1.36.44,2.65.87,4,1.31q6.45,2.07,13.33,4.2C480.09,818,432.8,786.12,401.25,775c.79-.1,1.6-.22,2.43-.35l.23,0c1.29-.2,2.65-.43,4-.69l.53-.09c1.37-.25,2.79-.54,4.25-.84l.72-.15c1.45-.32,3-.66,4.5-1l.85-.19c1.57-.38,3.18-.79,4.85-1.23.29-.08.59-.15.88-.24,1.71-.44,3.46-.93,5.27-1.44l.8-.25q2.82-.81,5.82-1.72l.58-.19c2.1-.65,4.25-1.34,6.49-2.08l.06,0c2.23-.73,4.55-1.53,6.93-2.36l.66-.23c2.28-.8,4.63-1.65,7-2.53l1-.38q3.56-1.32,7.31-2.77l1.22-.47q3.76-1.46,7.73-3l1.26-.51c2.69-1.09,5.44-2.22,8.26-3.41l1.15-.49c2.93-1.22,5.9-2.49,9-3.82l.82-.36c3.23-1.41,6.51-2.86,9.9-4.38h-.21c-57.52,1.78-127.13,8-135.18,30.48,7.63-22.62-42.42-71.3-85.84-108.92q2.76,5.48,5.4,10.58l1.85,3.5c1.12,2.15,2.25,4.31,3.35,6.37.72,1.34,1.42,2.61,2.13,3.92,1,1.78,1.94,3.58,2.89,5.29l2.15,3.83c.89,1.6,1.8,3.2,2.68,4.74.72,1.25,1.42,2.44,2.12,3.64.85,1.46,1.69,2.9,2.52,4.29.7,1.18,1.39,2.31,2.07,3.44.81,1.33,1.6,2.63,2.39,3.89.67,1.09,1.34,2.16,2,3.2.77,1.22,1.52,2.4,2.27,3.56.65,1,1.29,2,1.93,3s1.45,2.19,2.17,3.25l1.83,2.7c.71,1,1.4,2,2.09,3,.58.82,1.16,1.66,1.74,2.44.68.94,1.35,1.84,2,2.74.55.73,1.1,1.48,1.63,2.17.67.89,1.32,1.72,2,2.55.49.64,1,1.29,1.48,1.89.69.86,1.36,1.66,2,2.47.41.5.85,1,1.25,1.51.86,1,1.69,1.95,2.51,2.87l.61.69c1,1.07,1.89,2.07,2.8,3-31.64-10.51-88.73-14-138.15-15.14h-.23q6.12,2.26,11.94,4.36l1,.36c3.7,1.33,7.3,2.59,10.82,3.81l1.36.48c3.43,1.19,6.76,2.31,10,3.41l1.42.47q4.82,1.61,9.39,3.07l1.36.43c3,1,6,1.9,8.87,2.78l1.18.35c2.92.9,5.77,1.74,8.53,2.54l.68.2q8.67,2.52,16.33,4.47l.57.15c2.43.62,4.76,1.2,7,1.74.3.07.6.16.89.22,2.2.52,4.31,1,6.37,1.46.33.06.66.15,1,.21q3,.66,5.86,1.23l.92.17c1.87.37,3.7.72,5.44,1l.81.15c1.76.3,3.47.58,5.11.84l.55.08c1.7.25,3.35.49,4.92.68l.13,0c1.55.19,3,.37,4.48.51l.43,0c1.39.14,2.7.24,4,.34l.58,0c1.22.08,2.38.14,3.5.19l.64,0h.1c-32.36,13.56-83,54.7-125.14,91.57l0,0-.19.17c2.35-1,4.66-2,6.94-3l2.66-1.18,4.08-1.82,2.9-1.3,3.67-1.66,2.92-1.33,3.38-1.55,3-1.37,3.14-1.46c1-.46,2-.92,2.93-1.38l3-1.4,2.87-1.37,2.86-1.37,2.72-1.32,2.8-1.36L269.4,844l2.61-1.29,2.63-1.31,2.55-1.29,2.45-1.23,2.51-1.3,2.35-1.21,2.38-1.23,2.29-1.21c.87-.45,1.7-.91,2.54-1.35l3.14-1.68,3-1.62,1.78-1L302,827l1.79-1L306,824.8l1.81-1,2-1.15,1.72-1,1.95-1.14,1.62-1,1.85-1.1,1.57-.95,1.81-1.1,1.42-.89,1.76-1.1,1.38-.87,1.67-1.07,1.27-.82,1.71-1.12c.36-.25.73-.49,1.1-.73l1.72-1.16,1-.65,1.79-1.24.74-.52c.8-.56,1.57-1.1,2.32-1.65l.09-.06c.81-.57,1.58-1.14,2.34-1.69l.2-.16c.67-.5,1.32-1,1.94-1.46.2-.14.38-.29.56-.43.51-.38,1-.77,1.5-1.15l.58-.46c.45-.35.9-.7,1.32-1l.63-.51,1.19-1,.59-.49,1.11-.93.56-.5c.35-.29.69-.59,1-.9l.52-.46,1-.88a3.71,3.71,0,0,1,.29-.27c-.22.44-.43.9-.65,1.37-.1.21-.19.43-.29.63-.5,1.1-1,2.24-1.53,3.44-.08.21-.17.42-.25.61-.54,1.27-1.08,2.58-1.62,4-.06.14-.11.29-.17.44-.57,1.44-1.14,2.94-1.72,4.52l-.06.17c-.58,1.6-1.17,3.29-1.77,5-.07.19-.13.38-.2.59-.57,1.68-1.15,3.46-1.74,5.29-.08.29-.17.57-.26.86-.58,1.81-1.15,3.71-1.73,5.68-.1.34-.21.68-.31,1-.58,2-1.16,4-1.74,6.16-.11.36-.2.72-.3,1.08q-.9,3.29-1.8,6.79l-.24,1c-.62,2.44-1.25,5-1.87,7.58-.06.21-.1.43-.16.64q-1,4.14-2,8.56v0c-.66,2.95-1.31,6-2,9.15-.05.28-.12.55-.17.82-.63,3-1.27,6.18-1.9,9.39-.08.44-.17.85-.24,1.29-.62,3.17-1.24,6.45-1.86,9.82-.09.52-.18,1-.28,1.56q-.92,5.05-1.83,10.4c-.09.57-.19,1.15-.29,1.72-.61,3.61-1.23,7.33-1.83,11.15-.08.52-.17,1.06-.25,1.58-.63,3.95-1.25,8-1.87,12.17-.05.38-.12.77-.16,1.14C319.87,932.17,319.22,936.67,318.57,941.31ZM367.67,771l0-.05h.26l.52,0,.38,0,.28,0,.33,0,.18,0,.27-.05.08,0h0l.38-.12.05-.15a2.77,2.77,0,0,0,.19.3h0l.21.27,0,0,.31.33.06.06.42.38.07,0,.52.4.08,0a7.59,7.59,0,0,0,.66.42.57.57,0,0,0,.13.08l.11.07a2.91,2.91,0,0,0,0,.3h0a2.5,2.5,0,0,0,0,.25.15.15,0,0,1,0,.07c0,.14,0,.29.06.47a.22.22,0,0,1,0,.08,8.74,8.74,0,0,0,.32,1.16c-.18-.06-.34-.16-.51-.21a3.81,3.81,0,0,0-.29.31h0a7.26,7.26,0,0,0-.46.67,15.92,15.92,0,0,0-2.17-4.41,2.13,2.13,0,0,0-.41.06h0l-.31.09-.11,0-.41.16-.13,0-.53.26-.12.07c-.19.1-.38.22-.59.35l-.14.08-.71.49-.16.14s0,0-.05,0a2.56,2.56,0,0,0-.05-.66c-.16-.06-.35-.09-.51-.14l.25-.18.15-.11.4-.32.13-.12.28-.26.12-.12.17-.2s0,0,.05-.05h0A2.49,2.49,0,0,0,367.67,771Z"/><path class="cls-9" d="M494.34,722.57s-48.09,17.06,10.29,321.18C520.39,911.59,532.24,749.57,494.34,722.57Z"/><path class="cls-7" d="M504.63,1043.75l.06-.47-11-320.35C488.06,726.43,450.38,761.13,504.63,1043.75Z"/><path class="cls-9" d="M501.37,726.77s-28.25,42.5,200.88,250.83C635.58,862.4,547.9,725.65,501.37,726.77Z"/><path class="cls-7" d="M702.25,977.6l-.24-.42L501,727.47C498.66,733.63,489.33,784,702.25,977.6Z"/><path class="cls-9" d="M500.26,722.88S507.4,773,795.15,764.94C677.31,728,531.55,690,500.26,722.88Z"/><path class="cls-7" d="M795.15,764.94l-.42-.14L500.47,723.6C502.68,729.69,527.75,772.43,795.15,764.94Z"/><path class="cls-9" d="M494,720.45s35.1,35.48,214.58-131.58C610.5,625.56,494,677.05,494,720.45Z"/><path class="cls-7" d="M708.55,588.87l-.35.13L494.54,720.9C499.66,724.45,541.76,744.11,708.55,588.87Z"/><path class="cls-9" d="M488.57,726.77s28.25,42.5-200.88,250.83C354.36,862.4,442,725.65,488.57,726.77Z"/><path class="cls-7" d="M287.69,977.6l.24-.42,201-249.71C491.28,733.63,500.61,784,287.69,977.6Z"/><path class="cls-9" d="M489.67,722.88S482.54,773,194.79,764.94C312.63,728,458.39,690,489.67,722.88Z"/><path class="cls-7" d="M194.79,764.94l.42-.14,294.26-41.2C487.26,729.69,462.2,772.43,194.79,764.94Z"/><path class="cls-9" d="M494,720.78s-36.1,34.46-210.73-137.66C380.27,622.59,495.3,677.4,494,720.78Z"/><path class="cls-7" d="M283.31,583.12l.35.14,209.8,138C488.23,724.62,445.59,743.07,283.31,583.12Z"/><path class="cls-9" d="M734,687.78s-17.55,34.38,148.45,125.31C831.8,750.13,765.83,677.2,734,687.78Z"/><path class="cls-7" d="M882.44,813.09l-.19-.23L733.8,688.3C732.43,692.93,728.18,728.58,882.44,813.09Z"/><path class="cls-9" d="M739.54,685.48S743.7,719,956.28,673.4C870.11,664.36,763.36,658.5,739.54,685.48Z"/><path class="cls-7" d="M956.28,673.4l-.31,0L739.68,686C741.17,689.83,758.73,715.72,956.28,673.4Z"/><path class="cls-9" d="M737.22,684.52s26.06,16.41,172.9-150.95C832,585.65,738.91,653.24,737.22,684.52Z"/><path class="cls-7" d="M910.12,533.57l-.28.19L737.65,684.7C741.51,685.93,773.66,689.09,910.12,533.57Z"/><path class="cls-9" d="M732.85,687.12S767,681.6,786.42,511C751.5,581.92,713.51,669.4,732.85,687.12Z"/><path class="cls-7" d="M786.42,511a1.51,1.51,0,0,0-.12.26L733.35,687C737.61,685.51,768.37,669.54,786.42,511Z"/><path class="cls-9" d="M732.85,692.78s33.69,1.25,6.7,217C723.09,824.69,708,718.84,732.85,692.78Z"/><path class="cls-7" d="M739.55,909.76c0-.11,0-.2,0-.31l-6.18-216.57C737.31,694,764.63,709.28,739.55,909.76Z"/><path class="cls-9" d="M731.68,690.56s18.6,24.53-135.42,185.3C641.39,793.57,700.67,694.94,731.68,690.56Z"/><path class="cls-7" d="M596.26,875.86l.16-.29L731.9,691C733.46,694.71,739.39,726.47,596.26,875.86Z"/><path class="cls-9" d="M733,687.21s-3.52,34.66-171.48,63.92C629.82,712,714.37,668.78,733,687.21Z"/><path class="cls-7" d="M561.55,751.13l.24-.14,171.14-63.27C731.71,692.1,717.64,723.94,561.55,751.13Z"/><path class="cls-9" d="M459,483.18s37.34,9.79,90.66-171.82C498.93,374.3,441.8,454.34,459,483.18Z"/><path class="cls-7" d="M549.61,311.36l-.18.23L459.51,483.26C464.31,483.61,500.06,480.13,549.61,311.36Z"/><path class="cls-9" d="M455.52,478.25S487.31,467,397.36,269.11C407,355.22,424.06,460.76,455.52,478.25Z"/><path class="cls-7" d="M397.36,269.11c0,.1,0,.21,0,.31L456,478C459.41,475.73,481,453,397.36,269.11Z"/><path class="cls-9" d="M455.08,480.72s10.45-29-184.44-136.61C338.21,409.24,424.16,485.76,455.08,480.72Z"/><path class="cls-7" d="M270.64,344.11l.23.23L455.15,480.26C455.53,476.23,451.75,444.14,270.64,344.11Z"/><path class="cls-9" d="M458.55,484.44s-12.7-32.19-183.47-14.67C351.79,488.71,445.38,507.12,458.55,484.44Z"/><path class="cls-7" d="M275.08,469.77l.27.07L458.3,484C456,480.13,433.77,453.49,275.08,469.77Z"/><path class="cls-9" d="M464.08,483.23s-6-33.19,210.52-53C595,464.54,494.86,501.91,464.08,483.23Z"/><path class="cls-7" d="M674.6,430.26a1.48,1.48,0,0,1-.29.12L464.07,482.74C464.35,478.6,473.41,448.65,674.6,430.26Z"/><path class="cls-9" d="M462.16,484.83s20-23.41,210,92.66C582.1,551,473.08,514.2,462.16,484.83Z"/><path class="cls-7" d="M672.14,577.49l-.32-.09-209.3-92.86C465.84,482.21,495.59,469.63,672.14,577.49Z"/><path class="cls-9" d="M458.6,484.24s34.61-4,99.12,153.84C504.87,579.76,444.58,506.41,458.6,484.24Z"/><path class="cls-7" d="M557.72,638.08l-.19-.21L459.12,484.23C463.65,484.49,497.77,491.42,557.72,638.08Z"/><path class="cls-7" d="M674.52,501S626.44,518,684.82,822.14C700.57,690,712.43,528,674.52,501Z"/><path class="cls-10" d="M684.82,822.14l.06-.47-11-320.35C668.25,504.82,630.56,539.52,684.82,822.14Z"/><path class="cls-7" d="M681.56,505.17S653.31,547.66,882.44,756C815.77,640.79,728.08,504,681.56,505.17Z"/><path class="cls-10" d="M882.44,756l-.24-.41-201-249.72C678.85,512,669.51,562.39,882.44,756Z"/><path class="cls-7" d="M680.45,501.27s7.13,50.12,294.88,42.06C857.5,506.34,711.74,468.34,680.45,501.27Z"/><path class="cls-10" d="M975.33,543.33l-.41-.13L680.66,502C682.87,508.07,707.93,550.82,975.33,543.33Z"/><path class="cls-7" d="M674.15,498.84s35.11,35.48,214.59-131.58C790.69,404,674.14,455.43,674.15,498.84Z"/><path class="cls-10" d="M888.74,367.26l-.35.13L674.72,499.29C679.85,502.84,721.94,522.5,888.74,367.26Z"/><path class="cls-7" d="M668.75,505.17S697,547.66,467.88,756C534.54,640.79,622.23,504,668.75,505.17Z"/><path class="cls-10" d="M467.88,756l.23-.41,201-249.72C671.47,512,680.8,562.39,467.88,756Z"/><path class="cls-7" d="M669.86,501.27S662.73,551.39,375,543.33C492.82,506.34,638.58,468.34,669.86,501.27Z"/><path class="cls-10" d="M375,543.33l.41-.13L669.66,502C667.44,508.07,642.38,550.82,375,543.33Z"/><path class="cls-7" d="M674.23,499.17S638.12,533.63,463.5,361.51C560.45,401,675.48,455.79,674.23,499.17Z"/><path class="cls-10" d="M463.5,361.51l.34.14,209.8,138C668.42,503,625.78,521.46,463.5,361.51Z"/><path class="cls-7" d="M435.15,599.28s-13-39.55-262.21,2.38C280.47,617,412.41,629.7,435.15,599.28Z"/><path class="cls-10" d="M172.94,601.66l.38.06,261.55-3C432.12,594.09,404.52,562.7,172.94,601.66Z"/><path class="cls-7" d="M431.59,604.94S397.45,581.1,223.21,764.12C318.43,711.88,431.64,642.92,431.59,604.94Z"/><path class="cls-10" d="M223.21,764.12l.33-.19L431,604.66C426.05,602.61,385.13,594,223.21,764.12Z"/><path class="cls-7" d="M434.78,604.11S393.77,609,395,843.88C427.33,748.45,461.07,630.25,434.78,604.11Z"/><path class="cls-10" d="M395,843.88c0-.1.07-.22.12-.33l39.12-239.28C429.19,606,393.85,625.6,395,843.88Z"/><path class="cls-7" d="M436.89,599s-29.6,28,103.32,177.53C512.12,695.87,472.3,599.82,436.89,599Z"/><path class="cls-10" d="M540.21,776.55a2.49,2.49,0,0,0-.11-.29L436.51,599.48C433.51,603.59,416.68,637.56,540.21,776.55Z"/><path class="cls-7" d="M431.82,594.5S396.64,616.75,231,425.92C323.7,482.47,433.62,556.56,431.82,594.5Z"/><path class="cls-10" d="M231,425.92l.33.2,200,168.63C426.19,596.58,384.92,603.25,231,425.92Z"/><path class="cls-7" d="M435,595.47s-40.74-6.75-28.77-241.35C434.17,450.94,462.44,570.57,435,595.47Z"/><path class="cls-10" d="M406.21,354.12c0,.11.06.23.1.34L434.4,595.29C429.48,593.37,395.08,572.13,406.21,354.12Z"/><path class="cls-7" d="M436.61,599.08S409.18,569,552.87,429.74C518.85,508.1,472,600.91,436.61,599.08Z"/><path class="cls-10" d="M552.87,429.74a2.36,2.36,0,0,1-.12.28L436.27,598.59C433.59,594.26,419.34,559.13,552.87,429.74Z"/><path class="cls-9" d="M323.77,685.37s-47.31-11.27-205.18,146C218,779.11,334.25,712.14,323.77,685.37Z"/><path class="cls-7" d="M118.59,831.36l.36-.19L323,685.27C316.52,684.63,265.3,685.22,118.59,831.36Z"/><path class="cls-9" d="M326.25,690s-49.32,7.72-15.83,189.44C336.85,802.43,361.84,707.69,326.25,690Z"/><path class="cls-7" d="M310.42,879.43l.09-.28,15-189C319.68,692,279.3,710.57,310.42,879.43Z"/><path class="cls-9" d="M328,687.83s-27.87,24.94,192.93,133.95C457.21,759.33,373.25,685.51,328,687.83Z"/><path class="cls-7" d="M520.93,821.78l-.22-.22-193-133.33C325.3,691.78,315.74,720.48,520.93,821.78Z"/><path class="cls-9" d="M324.9,684.29s2.76,29.41,247.89,25.8C475.06,687.94,353.66,665.1,324.9,684.29Z"/><path class="cls-7" d="M572.79,710.09l-.35-.08L325,684.71C326.5,688.28,345,713.45,572.79,710.09Z"/><path class="cls-9" d="M316.66,685s-7,29.83-316.66,32.26C126.28,692.41,282.57,666.28,316.66,685Z"/><path class="cls-7" d="M0,717.24l.46-.08,316-31.75C314.15,689.07,287.75,715,0,717.24Z"/><path class="cls-9" d="M320.07,683.68S281.52,703,71.39,586.91C184.14,616.66,318.47,656.9,320.07,683.68Z"/><path class="cls-7" d="M71.39,586.91l.4.11,247.65,96.9C313.75,685.75,266.66,694.84,71.39,586.91Z"/><path class="cls-9" d="M324.73,684.47s-49.87,1.11-66.54-143.29C304.62,596.56,354.43,665.79,324.73,684.47Z"/><path class="cls-7" d="M258.19,541.18l.16.2,65.66,143C317.84,683.9,273.68,675.37,258.19,541.18Z"/><path class="cls-9" d="M704.3,244.18s47.31-11.27,205.18,146C810.08,337.91,693.81,270.94,704.3,244.18Z"/><path class="cls-7" d="M909.48,390.16l-.36-.19L705,244.08C711.56,243.43,762.77,244,909.48,390.16Z"/><path class="cls-9" d="M701.82,248.79s49.32,7.73,15.83,189.44C691.21,361.24,666.23,266.49,701.82,248.79Z"/><path class="cls-7" d="M717.65,438.23l-.09-.28-15-189C708.39,250.76,748.77,269.37,717.65,438.23Z"/><path class="cls-9" d="M700.07,246.64s27.87,24.94-192.93,134C570.86,318.14,654.81,244.32,700.07,246.64Z"/><path class="cls-7" d="M507.14,380.59l.22-.22L700.39,247C702.77,250.59,712.33,279.29,507.14,380.59Z"/><path class="cls-9" d="M703.17,243.1s-2.76,29.41-247.89,25.79C553,246.75,674.41,223.91,703.17,243.1Z"/><path class="cls-7" d="M455.28,268.89l.35-.07L703,243.52C701.56,247.09,683.07,272.25,455.28,268.89Z"/><path class="cls-9" d="M711.41,243.78s7,29.84,316.66,32.27C901.79,251.22,745.5,225.08,711.41,243.78Z"/><path class="cls-7" d="M1028.07,276.05l-.45-.09-316-31.75C713.92,247.87,740.31,273.79,1028.07,276.05Z"/><path class="cls-9" d="M708,242.49s38.56,19.36,248.67-96.77C843.93,175.47,709.6,215.7,708,242.49Z"/><path class="cls-7" d="M956.67,145.72l-.4.1L708.63,242.73C714.31,244.55,761.41,253.64,956.67,145.72Z"/><path class="cls-9" d="M703.33,243.27s49.88,1.11,66.55-143.28C723.45,155.37,673.64,224.59,703.33,243.27Z"/><path class="cls-7" d="M769.88,100a1.56,1.56,0,0,0-.16.2L704.06,243.24C710.23,242.7,754.39,234.17,769.88,100Z"/><path class="cls-9" d="M331.12,95.33s-31.29-7.45-135.65,96.51C261.19,157.3,338.05,113,331.12,95.33Z"/><path class="cls-7" d="M195.47,191.84l.24-.13L330.63,95.26C326.32,94.83,292.46,95.23,195.47,191.84Z"/><path class="cls-9" d="M332.76,98.38s-32.61,5.1-10.47,125.24C339.76,172.71,356.28,110.08,332.76,98.38Z"/><path class="cls-7" d="M322.29,223.62l.06-.18,9.94-124.95C328.42,99.68,301.72,112,322.29,223.62Z"/><path class="cls-9" d="M333.92,97s-18.43,16.49,127.54,88.56C419.34,144.22,363.83,95.42,333.92,97Z"/><path class="cls-7" d="M461.46,185.51a1.85,1.85,0,0,0-.14-.14L333.7,97.22C332.13,99.56,325.81,118.54,461.46,185.51Z"/><path class="cls-9" d="M331.86,94.61s1.83,19.45,163.88,17C431.13,97,350.88,81.93,331.86,94.61Z"/><path class="cls-7" d="M495.74,111.66l-.22,0L332,94.89C332.93,97.25,345.15,113.89,495.74,111.66Z"/><path class="cls-9" d="M326.42,95.06s-4.64,19.73-209.35,21.34C200.55,100,303.88,82.7,326.42,95.06Z"/><path class="cls-7" d="M117.07,116.4l.3-.06,208.91-21C324.76,97.76,307.3,114.9,117.07,116.4Z"/><path class="cls-9" d="M328.68,94.21s-25.5,12.8-164.41-64C238.8,49.9,327.62,76.5,328.68,94.21Z"/><path class="cls-7" d="M164.27,30.23l.26.07L328.25,94.37C324.49,95.57,293.36,101.58,164.27,30.23Z"/><path class="cls-9" d="M331.75,94.73s-33,.73-44-94.73C318.45,36.61,351.38,82.38,331.75,94.73Z"/><path class="cls-7" d="M287.76,0l.11.13,43.41,94.58C327.2,94.35,298,88.71,287.76,0Z"/><path class="cls-9" d="M444.28,287.17S413,279.72,308.63,383.68C374.34,349.13,451.21,304.86,444.28,287.17Z"/><path class="cls-7" d="M308.63,383.68l.23-.13L443.78,287.1C439.48,286.67,405.62,287.07,308.63,383.68Z"/><path class="cls-9" d="M445.91,290.22s-32.6,5.11-10.46,125.24C452.92,364.56,469.44,301.92,445.91,290.22Z"/><path class="cls-7" d="M435.45,415.46l.06-.18,9.94-124.95C441.57,291.52,414.87,303.82,435.45,415.46Z"/><path class="cls-9" d="M447.07,288.79s-18.43,16.49,127.55,88.56C532.49,336.06,477,287.26,447.07,288.79Z"/><path class="cls-7" d="M574.62,377.35l-.15-.15L446.86,289.06C445.29,291.4,439,310.38,574.62,377.35Z"/><path class="cls-9" d="M445,286.45s1.82,19.45,163.88,17.05C544.29,288.86,464,273.77,445,286.45Z"/><path class="cls-7" d="M608.9,303.5l-.22-.05L445.1,286.73C446.08,289.09,458.31,305.73,608.9,303.5Z"/><path class="cls-9" d="M439.57,286.9s-4.63,19.73-209.35,21.34C313.71,291.82,417,274.54,439.57,286.9Z"/><path class="cls-7" d="M230.22,308.24l.3-.06,208.91-21C437.91,289.6,420.46,306.74,230.22,308.24Z"/><path class="cls-9" d="M441.83,286.05s-25.49,12.8-164.41-64C352,241.74,440.77,268.34,441.83,286.05Z"/><path class="cls-7" d="M277.42,222.07l.27.07,163.72,64.07C437.65,287.41,406.52,293.42,277.42,222.07Z"/><path class="cls-9" d="M444.91,286.57s-33,.73-44-94.73C431.61,228.45,464.54,274.22,444.91,286.57Z"/><path class="cls-7" d="M400.91,191.84l.11.13,43.41,94.58C440.35,286.19,411.16,280.55,400.91,191.84Z"/></g></g></g></svg>