<svg xmlns="http://www.w3.org/2000/svg" viewBox="0 0 804.4 1169.84"><defs><style>.cls-1{isolation:isolate;}.cls-2{fill:#459b06;}.cls-3{fill:#2c5900;}.cls-4{fill:#377705;}.cls-5{fill:#5ab502;}.cls-6{fill:#fff;}.cls-7{fill:#ffffca;}.cls-8{fill:#fbde16;}.cls-9{fill:#8a5d33;}.cls-10{fill:#e08d53;}.cls-11{fill:#cc7c3a;}.cls-12{mix-blend-mode:multiply;}.cls-13{fill:#cecece;}</style></defs><title>Asset 10</title><g class="cls-1"><g id="Layer_2" data-name="Layer 2"><g id="Mobile_View" data-name="Mobile View"><path class="cls-2" d="M425.25,893.08l-11.66-7c.11-.21,2.53-4.78-.34-12.25-3.8-9.86-18.95-29.44-77.73-49.9L340,811.07c49.53,17.24,78.57,37,86.29,58.81C431,883.16,425.85,892.1,425.25,893.08Z"/><path class="cls-2" d="M461.23,904.12c-2.18-5.14-52.39-128.3,42.61-346.75l12.48,5.42c-92.43,212.54-43.07,334.81-42.56,336Z"/><path class="cls-3" d="M587.05,277.17s13.37,102.36,16.29,175C609,591.11,516.35,620,476.82,643.74c-52.73-101.43-9.71-193.22,42-264.29S581.17,303.49,587.05,277.17Z"/><path class="cls-3" d="M603.34,452.17c-5.4-72.72-16.29-175-16.29-175,.17,55-34.73,236-99.12,347.22-3.19,5.53-8.24,13.74-11.11,19.35C520.44,623,613.47,588.29,603.34,452.17Z"/><path class="cls-4" d="M0,782.63s95.55-67.14,166.75-81.8C302.94,672.77,370.81,773.09,379.6,832c-91.55,68.47-146.94,9-225.45-30.57S28.88,775.26,0,782.63Z"/><path class="cls-3" d="M154.15,801.42c77.85,39.21,133,98,223.16,32.2-26-29.63-83.9-41.42-186.08-65.27-48.56-11.34-121.6-2-187.47,11.7C1.35,781.69,0,782.63,0,782.63,28.88,775.26,75.65,761.88,154.15,801.42Z"/><path class="cls-3" d="M803.82,608.82s-116.62-6-184.71,19.47C488.88,677,484.79,798.06,508.69,852.6c114,9.26,129.19-70.58,174.62-145.84S775.46,618,803.82,608.82Z"/><path class="cls-3" d="M683.31,706.76c-45,74.62-60.47,153.7-171.81,146,6.28-38.94,49-79.71,122.82-154.27,35.08-35.44,101.87-66.44,164.95-89.86,2.91.1,4.55.19,4.55.19C775.46,618,728.75,631.5,683.31,706.76Z"/><path class="cls-3" d="M191.18,624.43l.06.09C235.85,692.12,261.06,760,366.9,743.43c19.79-56.16,6.75-176.57-126.74-215.51-61.64-18-159.18-8.68-181.11-6.26h0l-.58.07c-2.51.27-3.94.45-3.94.45,29,7,76.56,17.07,127.44,88.75,1.59,2.24,3.14,4.48,4.68,6.72l.54.81C188.53,620.45,189.87,622.44,191.18,624.43Z"/><path class="cls-2" d="M453.45,872.32l-13.58-.8c.12-2,11-201.7-65.69-302.8L385,560.5C464.73,665.63,454,863.93,453.45,872.32Z"/><path class="cls-4" d="M242.94,216.28s91.33,94.4,150.34,166.66c112.87,138.22,53.48,242.53,37,298.74C304.82,619.94,271.56,491,262.11,376.29S258.19,248.07,242.94,216.28Z"/><path class="cls-2" d="M393.28,382.94C332,312.59,242.94,216.28,242.94,216.28,285.83,272.66,395.54,486.7,425,652.84c1.47,8.26,3.38,20.75,5.2,28.84C452.67,625.19,508,514.63,393.28,382.94Z"/><path class="cls-2" d="M452.9,896.76c-1-3.07-25.76-76.7-22.93-201C432.58,581.47,460.31,401.26,577.68,192l11.86,6.66C473.73,405.14,446.25,582.74,443.59,695.38c-2.89,122,21.94,196.24,22.19,197Z"/><path class="cls-2" d="M444,909.81c-.66-2.88-16.13-71.79.86-178.39,15.64-98.08,63.13-247.56,200.6-402.7l10.19,9c-135.05,152.41-181.8,299-197.23,395.09C441.73,837,457.14,906.07,457.3,906.75Z"/><path class="cls-2" d="M402.43,904,390.9,896.8c.42-.68,42.76-69.88,51.82-193.59C451.1,588.91,432,403.35,293.29,168.45L305,161.54C445.77,400,464.93,588.76,456.22,705.18,446.74,831.93,404.24,901.13,402.43,904Z"/><path class="cls-4" d="M727.82,391.45s-18.3,130.05-39,221c-39.62,174-158.4,191.29-212.89,212.8-28.41-136.85,52.85-242.37,137.5-320.33S712.12,423,727.82,391.45Z"/><path class="cls-2" d="M688.8,612.46c17.82-91.57,39-221,39-221-18.1,68.47-119.46,286.6-232.36,412-5.62,6.24-14.3,15.43-19.55,21.83C534.25,808.24,655.43,783.87,688.8,612.46Z"/><path class="cls-4" d="M254.1,512.86s9,102.84,21.81,174.4C300.38,824.14,397,832.43,440.75,847.06c29.64-110.41-32.16-190.77-98-249S265.53,537.3,254.1,512.86Z"/><path class="cls-2" d="M275.91,687.26c-10.4-72.18-21.81-174.4-21.81-174.4,11.69,53.76,84.78,223,171.62,317.7,4.32,4.72,11,11.65,15,16.5C393.67,836.19,295.36,822.36,275.91,687.26Z"/><path class="cls-5" d="M682.7,596.86S567.05,613.06,505,651c-118.65,72.5-99.74,192.14-65.94,241.16,113.64-12.49,113.49-93.77,143.84-176.27S656.58,611.21,682.7,596.86Z"/><path class="cls-2" d="M582.92,715.86c-30.1,81.81-30.27,162.37-141,175.91-1.23-39.44,33-87.55,91.37-174.75,27.74-41.45,87.44-84.53,145-119.48l4.5-.68C656.58,611.21,613.27,633.36,582.92,715.86Z"/><path class="cls-6" d="M554.65,249.88s-63.85-101.11,12.13-144.2,106.6-60.1,112.27-83.92c11.33,52.17,43.1,208.11-124.4,228.12"/><path class="cls-7" d="M595.13,178.25c-31.19-19.28-48-3.4-63.3,13.75,6.19,31.53,22.82,57.88,22.82,57.88,19-2.27,35.36-6.29,49.54-11.7C616.36,225.71,613.43,189.57,595.13,178.25Z"/><path class="cls-8" d="M568.6,246.34c-2.37,4.89-8.91,6.62-14.58,3.86h0c-5.68-2.76-8.36-9-6-13.85L594.37,141c2.37-4.88,8.9-6.62,14.58-3.86h0c5.68,2.77,8.36,9,6,13.86Z"/><path class="cls-6" d="M636.51,351.77s-42.15-111.9,41-138.79S794,175.61,804.34,153.43c.59,53.38.26,212.53-167.83,198.34"/><path class="cls-7" d="M690.59,289.78c-26.65-25.17-46.28-13-64.76.71-.3,32.12,10.68,61.28,10.68,61.28,19,1.61,35.9,1,50.88-1.46C701.83,340.55,706.24,304.56,690.59,289.78Z"/><path class="cls-8" d="M650.88,351.12c-3.31,4.31-10.06,4.69-15.06.84h0c-5-3.85-6.38-10.46-3.06-14.77l64.61-84.05c3.31-4.32,10-4.69,15.06-.85h0c5,3.85,6.38,10.47,3.06,14.78Z"/><path class="cls-6" d="M338.29,230.29S218.76,227.08,225.23,140,234.61,18,218,0c49.66,19.6,196.91,80,120.32,230.29"/><path class="cls-7" d="M301.3,156.8c-33.37,15.19-29.51,38-23.79,60.24,29.64,12.4,60.78,13.25,60.78,13.25,8.68-17,14.45-32.88,17.85-47.67C352.55,165.57,320.89,147.89,301.3,156.8Z"/><path class="cls-8" d="M343.12,216.73c2.74,4.69.54,11.09-4.91,14.27h0c-5.46,3.18-12.1,1.95-14.84-2.74L269.92,136.7c-2.74-4.7-.54-11.08,4.91-14.26h0c5.46-3.19,12.1-2,14.84,2.73Z"/><path class="cls-9" d="M623.51,909.56c0,37-75.8,67-169.31,67s-169.31-30-169.31-67,75.8-67,169.31-67S623.51,872.57,623.51,909.56Z"/><path class="cls-10" d="M591.71,1169.84H317.62l-60.18-283.5H651.89Q621.85,1028.09,591.71,1169.84Z"/><path class="cls-11" d="M456.53,886.34H257.44l60.18,283.5H456.53Z"/><g class="cls-12"><path class="cls-13" d="M257.44,886.34l46.38,218.49C374.54,996.58,509.21,936,640.71,939q5.58-26.32,11.18-52.65Z"/></g><rect class="cls-10" x="249.8" y="881.41" width="408.81" height="51.68"/><rect class="cls-11" x="249.8" y="881.41" width="206.11" height="51.68"/></g></g></g></svg>